<svg width="73" height="233" viewBox="0 0 73 233" fill="none" xmlns="http://www.w3.org/2000/svg">
<path d="M32.0308 0.424264C32.8592 0.426551 33.5289 1.09997 33.5266 1.92839L33.4893 15.4283C33.4871 16.2568 32.8136 16.9265 31.9852 16.9242C31.1568 16.9219 30.4871 16.2485 30.4894 15.4201L30.5225 3.42011L18.5225 3.38696C17.6941 3.38466 17.0244 2.71124 17.0267 1.88282C17.029 1.0544 17.7024 0.38468 18.5308 0.386974L32.0308 0.424264ZM71.7995 229.757C72.505 230.191 72.725 231.115 72.2908 231.821C71.8566 232.526 70.9326 232.746 70.2271 232.312L71.7995 229.757ZM33.0844 2.98784C7.85831 28.0749 -1.13236 73.2566 5.64238 118.142C12.4111 162.988 34.8471 207.015 71.7995 229.757L70.2271 232.312C32.2891 208.964 9.52926 163.996 2.67598 118.59C-4.17128 73.2238 4.78991 26.8954 30.9689 0.860673L33.0844 2.98784Z" fill="url(#paint0_linear_16_63)"/>
<defs>
<linearGradient id="paint0_linear_16_63" x1="84.0982" y1="56.0584" x2="5.7894" y2="194.01" gradientUnits="userSpaceOnUse">
<stop stop-color="#BFF0FF"/>
<stop offset="1" stop-color="#82B4FF"/>
</linearGradient>
</defs>
</svg>
