<svg width="64" height="89" viewBox="0 0 64 89" fill="none" xmlns="http://www.w3.org/2000/svg">
<mask id="mask0_1_501" style="mask-type:luminance" maskUnits="userSpaceOnUse" x="0" y="0" width="64" height="89">
<path d="M63.6417 0.865493L0.750977 0.738281L0.618166 88.1781L63.5089 88.3053L63.6417 0.865493Z" fill="white"/>
</mask>
<g mask="url(#mask0_1_501)">
<path d="M21.9228 47.3874L21.8597 88.2173L0.616283 88.174L0.706785 29.6271C0.70914 28.2249 1.11588 26.8624 1.86448 25.7491C2.61308 24.6358 3.66209 23.8333 4.85022 23.4651C6.03835 23.0968 7.29984 23.1831 8.44071 23.7108C9.58157 24.2385 10.5387 25.1782 11.1649 26.3856C11.1733 26.3953 11.1733 26.4049 11.1817 26.4134L21.9228 47.3874Z" fill="url(#paint0_linear_1_501)"/>
<path d="M63.6408 0.866071L63.552 59.4708C63.5502 60.8766 63.1421 62.2425 62.3906 63.3578C61.6391 64.473 60.586 65.2753 59.394 65.6411C58.2019 66.0068 56.9374 65.9153 55.7956 65.381C54.6537 64.8467 53.698 63.8992 53.0763 62.6847L42.3356 41.6977L42.3975 0.823242L63.6408 0.866071Z" fill="url(#paint1_linear_1_501)"/>
<path d="M63.552 59.4702L63.5084 88.3064L42.8652 88.2648L28.1574 59.5518C28.1574 59.5422 28.1489 59.5422 28.1489 59.5325L28.1405 59.5229L21.919 47.3866L11.1781 26.4188C11.1696 26.4104 11.1696 26.4007 11.1612 26.3911C10.535 25.1837 9.578 24.2439 8.4372 23.7164C7.2964 23.1887 6.03501 23.1024 4.84699 23.4706C3.65896 23.839 2.61006 24.6414 1.86156 25.7547C1.11305 26.868 0.706382 28.2306 0.704072 29.6328L0.747803 0.73877L21.391 0.78039L38.6443 34.5005C38.6583 34.5134 38.6698 34.5293 38.6781 34.5475L41.4092 39.891L41.4176 39.9007C41.4261 39.9103 41.426 39.9296 41.4345 39.9381L42.3338 41.6971L53.0748 62.6842C53.6961 63.8998 54.6518 64.8484 55.794 65.3836C56.9362 65.9187 58.2014 66.0105 59.3939 65.6447C60.5864 65.2788 61.6399 64.4758 62.3916 63.3597C63.1432 62.2437 63.5509 60.8767 63.552 59.4702Z" fill="url(#paint2_linear_1_501)"/>
<g style="mix-blend-mode:multiply" opacity="0.16">
<path d="M21.9235 47.3854L21.9103 55.9098C13.4375 39.8529 4.45045 40.3813 0.688533 41.525L0.706911 29.6321C0.709265 28.23 1.11602 26.8676 1.86464 25.7544C2.61326 24.641 3.66229 23.8387 4.85046 23.4704C6.03862 23.1022 7.30014 23.1885 8.44104 23.7162C9.58194 24.2438 10.5391 25.1835 11.1653 26.3908C11.1737 26.4005 11.1737 26.4101 11.1821 26.4186L21.9235 47.3854Z" fill="#312626"/>
</g>
<g style="mix-blend-mode:multiply" opacity="0.16">
<path d="M63.5691 47.5289L63.5507 59.4703C63.5488 60.876 63.1407 62.2419 62.3892 63.3571C61.6376 64.4722 60.5845 65.2745 59.3925 65.6403C58.2004 66.0059 56.9359 65.9144 55.7941 65.3801C54.6523 64.8458 53.6966 63.8983 53.0749 62.6839L42.3349 41.6975L42.3457 34.6904C51.2134 46.256 59.2609 47.7695 63.5691 47.5289Z" fill="#312626"/>
</g>
<g style="mix-blend-mode:screen" opacity="0.5">
<path d="M38.647 34.5002C37.0583 31.8087 35.5533 29.05 34.0059 26.3406L31.7194 22.1988L29.4677 18.0522C27.9624 15.2742 26.4775 12.4874 25.0131 9.69178C23.6178 7.06815 22.265 4.4157 20.8941 1.78248C17.6156 1.79517 14.3457 1.74043 11.0746 1.73386L5.90848 1.64763C4.41593 1.62536 2.92124 1.59345 1.42448 1.5519C1.36038 4.7965 1.2709 8.03141 1.17295 11.2759C1.01642 14.7889 0.926528 18.3021 0.719242 21.8149L0.750977 0.73877L21.3937 0.780206L38.647 34.5002Z" fill="white"/>
</g>
<g style="mix-blend-mode:multiply" opacity="0.25">
<path d="M63.6397 0.866162L63.5559 56.4951C63.2678 51.8587 63.1056 47.2201 62.9698 42.5839L62.8281 35.6341L62.7464 28.6747L62.723 21.7251L62.7674 14.7744L62.87 7.81539L63.0233 1.51772C61.2444 1.43827 59.4665 1.36725 57.6961 1.2577C55.7152 1.15858 53.7259 1.00886 51.7451 0.842285L63.6397 0.866162Z" fill="#312626"/>
</g>
<g style="mix-blend-mode:screen" opacity="0.5">
<path d="M60.185 88.2991L42.8633 88.2638L28.1559 59.5522C29.577 61.8013 30.9305 64.0983 32.2596 66.4146C32.923 67.5769 33.5874 68.7405 34.235 69.922C34.8825 71.1036 35.5376 72.2575 36.1683 73.4487C37.4534 75.8039 38.7083 78.1806 39.933 80.5789C40.5657 81.7605 41.1687 82.9709 41.7739 84.1728L43.3555 87.3242C46.0788 87.3876 48.8011 87.4786 51.5316 87.6287C54.4123 87.7791 57.3035 87.9765 60.185 88.2991Z" fill="white"/>
</g>
<g style="mix-blend-mode:multiply" opacity="0.25">
<path d="M21.9059 58.6473L21.8603 88.222L3.71048 88.1851C5.22006 88.0147 6.73698 87.8841 8.24647 87.7716C9.75596 87.659 11.2728 87.5862 12.7949 87.5026C14.3033 87.4479 15.8127 87.3655 17.3305 87.3397C18.5522 87.3133 19.7749 87.2771 21.0061 87.2604C20.9925 85.1202 20.9789 82.9692 21.0076 80.8291C21.0198 78.3625 21.0734 75.8911 21.1247 73.4283C21.1962 70.9715 21.2846 68.504 21.4059 66.0377C21.5271 63.5714 21.6736 61.1134 21.9059 58.6473Z" fill="#312626"/>
</g>
<g style="mix-blend-mode:screen" opacity="0.7">
<path d="M21.9226 47.3868L11.1815 26.4189C11.1731 26.4105 11.1731 26.4009 11.1646 26.3912C10.5385 25.1838 9.58138 24.244 8.44058 23.7165C7.29977 23.1888 6.03838 23.1026 4.85035 23.4708C3.66233 23.8391 2.61343 24.6416 1.86493 25.7549C1.11643 26.8682 0.709769 28.2308 0.70747 29.633L0.750977 0.73877C0.907046 3.14795 0.979594 5.55696 1.08597 7.95881C1.14338 9.16336 1.18279 10.3679 1.21482 11.5724L1.31515 15.1859C1.36229 17.5948 1.43376 20.0038 1.44707 22.4055C1.45434 23.192 1.47007 23.9713 1.47735 24.7578C1.61297 24.5943 1.75598 24.432 1.8916 24.2684C2.15606 24.0039 2.43212 23.7549 2.71872 23.5222C3.0141 23.3108 3.33483 23.1392 3.63863 22.9567C3.96672 22.8044 4.29578 22.6894 4.6249 22.5564C4.97084 22.48 5.30837 22.394 5.65322 22.3465C6.00754 22.3279 6.3534 22.2997 6.69922 22.3101C7.04496 22.3686 7.3982 22.3789 7.74389 22.476C8.08451 22.5695 8.41928 22.6889 8.74594 22.8333C9.06937 22.9891 9.38199 23.1724 9.6811 23.382C9.97827 23.599 10.2607 23.8412 10.5261 24.1063C10.7615 24.3947 11.0308 24.6638 11.2418 24.9713L11.8305 25.9361L11.725 25.7913L11.8421 25.9746C13.5903 29.4918 15.3075 33.0344 16.9935 36.602C17.8426 38.3791 18.6744 40.1693 19.4888 41.9728C20.3089 43.7739 21.1406 45.5617 21.9226 47.3868Z" fill="white"/>
</g>
<g style="mix-blend-mode:screen" opacity="0.7">
<path d="M63.5516 59.4713L63.5071 88.3073C63.3585 85.9066 63.2872 83.4976 63.181 81.097C63.0747 78.6964 63.0275 76.2875 62.9476 73.8881C62.909 71.4876 62.8494 69.0787 62.815 66.6782C62.8078 65.8917 62.7921 65.104 62.7848 64.3175C62.6079 64.5375 62.4224 64.7576 62.2359 64.9692C61.5505 65.6443 60.7488 66.1492 59.8823 66.4518C59.4526 66.6023 59.0122 66.7107 58.5661 66.7755C58.1143 66.8212 57.6597 66.8138 57.2092 66.7535C56.3051 66.6481 55.4315 66.3222 54.6479 65.798C54.2535 65.5266 53.8888 65.2024 53.5621 64.8323L53.0659 64.2459C52.9398 64.0639 52.8218 63.8747 52.7124 63.6791L52.5447 63.3994L52.4688 63.2655L52.3928 63.1305L52.3507 63.0533L52.065 62.4674L51.4861 61.2955L50.3178 58.9409L48.0321 54.2234L45.7717 49.477C45.0157 47.9013 44.3012 46.2967 43.5707 44.7018C42.8476 43.1262 42.1254 41.5409 41.4362 39.9448L42.3357 41.7039L53.0767 62.691C53.699 63.9054 54.655 64.8526 55.7972 65.3864C56.9394 65.9202 58.2041 66.011 59.396 65.6446C60.588 65.2782 61.6408 64.4751 62.3919 63.3593C63.143 62.2435 63.5506 60.8772 63.5516 59.4713Z" fill="white"/>
</g>
</g>
<defs>
<linearGradient id="paint0_linear_1_501" x1="11.2382" y1="88.0658" x2="11.3572" y2="29.7453" gradientUnits="userSpaceOnUse">
<stop stop-color="#81B3FE"/>
<stop offset="1" stop-color="#E0A6F4"/>
</linearGradient>
<linearGradient id="paint1_linear_1_501" x1="53.0168" y1="2.40482" x2="52.9029" y2="58.8955" gradientUnits="userSpaceOnUse">
<stop stop-color="#81B3FE"/>
<stop offset="1" stop-color="#A981FE"/>
<stop offset="1" stop-color="#E0A6F4"/>
</linearGradient>
<linearGradient id="paint2_linear_1_501" x1="0.681633" y1="44.4592" x2="63.5746" y2="44.5544" gradientUnits="userSpaceOnUse">
<stop stop-color="#D8A4F0"/>
<stop offset="0.125" stop-color="#D8A4F0"/>
<stop offset="0.25" stop-color="#D8A4F0"/>
<stop offset="0.375" stop-color="#DDA0FA" stop-opacity="0.847059"/>
<stop offset="0.5" stop-color="#D8A4F0"/>
<stop offset="0.625" stop-color="#D8A4F0"/>
<stop offset="0.75" stop-color="#A981FE"/>
<stop offset="0.875" stop-color="#A981FE"/>
<stop offset="1" stop-color="#A981FE"/>
</linearGradient>
</defs>
</svg>
