<svg width="430" height="422" viewBox="0 0 430 422" fill="none" xmlns="http://www.w3.org/2000/svg">
<path d="M422.543 142.575C422.892 141.832 422.594 140.879 421.879 140.448L410.219 133.418C409.504 132.987 408.641 133.24 408.293 133.984C407.944 134.727 408.241 135.68 408.957 136.111L419.321 142.36L414.271 153.132C413.923 153.876 414.22 154.828 414.936 155.26C415.651 155.691 416.514 155.438 416.862 154.694L422.543 142.575ZM260.541 33.8222C260.3 32.9861 259.49 32.471 258.731 32.6716C257.973 32.8721 257.553 33.7124 257.794 34.5485L260.541 33.8222ZM259.168 34.1853C257.794 34.5485 257.794 34.5485 257.794 34.5486C257.794 34.5486 257.794 34.5487 257.794 34.5487C257.794 34.5489 257.794 34.549 257.794 34.5491C257.794 34.5494 257.795 34.5498 257.795 34.5502C257.795 34.551 257.795 34.5521 257.796 34.5534C257.796 34.5561 257.797 34.5598 257.799 34.5645C257.802 34.5739 257.806 34.5874 257.811 34.6049C257.821 34.6399 257.836 34.6908 257.856 34.7575C257.896 34.8907 257.955 35.0864 258.033 35.3415C258.191 35.8516 258.428 36.5992 258.746 37.559L261.452 36.7004C261.141 35.7645 260.912 35.0399 260.761 34.5518C260.686 34.3077 260.63 34.1228 260.594 34.0001C260.575 33.9388 260.562 33.893 260.553 33.8632C260.549 33.8483 260.545 33.8374 260.543 33.8306C260.542 33.8271 260.542 33.8247 260.541 33.8233C260.541 33.8226 260.541 33.8222 260.541 33.822C260.541 33.8219 260.541 33.8218 260.541 33.8219C260.541 33.8219 260.541 33.8219 260.541 33.822C260.541 33.822 260.541 33.822 260.541 33.822C260.541 33.8221 260.541 33.8222 259.168 34.1853ZM260.889 43.621C261.546 45.3821 262.313 47.3603 263.193 49.5199L265.818 48.4418C264.952 46.3163 264.198 44.3706 263.552 42.6403L260.889 43.621ZM265.69 55.4039C266.508 57.2605 267.395 59.2047 268.351 61.2205L270.897 59.9633C269.955 57.978 269.082 56.0633 268.276 54.2348L265.69 55.4039ZM271.165 66.9459C272.1 68.7829 273.088 70.6624 274.13 72.5745L276.587 71.1427C275.561 69.2607 274.588 67.4103 273.668 65.6015L271.165 66.9459ZM277.25 78.1079C278.297 79.9017 279.39 81.7148 280.53 83.5395L282.883 81.9291C281.762 80.1353 280.687 78.3523 279.657 76.5876L277.25 78.1079ZM283.974 88.8634C285.135 90.5971 286.339 92.3347 287.587 94.0697L289.815 92.2734C288.59 90.5704 287.408 88.8642 286.267 87.1611L283.974 88.8634ZM291.373 99.1458C292.652 100.799 293.972 102.445 295.334 104.077L297.411 102.086C296.077 100.488 294.783 98.8749 293.529 97.2533L291.373 99.1458ZM299.474 108.846C300.871 110.394 302.309 111.924 303.786 113.43L305.683 111.24C304.238 109.767 302.832 108.271 301.465 106.756L299.474 108.846ZM308.268 117.806C309.782 119.222 311.336 120.611 312.928 121.968L314.61 119.577C313.057 118.253 311.54 116.898 310.061 115.516L308.268 117.806ZM317.765 125.894C319.397 127.154 321.067 128.38 322.775 129.567L324.207 126.983C322.543 125.828 320.917 124.634 319.326 123.406L317.765 125.894ZM327.923 132.947C329.652 134.018 331.417 135.048 333.219 136.033L334.369 133.275C332.616 132.317 330.899 131.315 329.218 130.273L327.923 132.947ZM338.657 138.812C340.477 139.678 342.332 140.499 344.222 141.269L345.066 138.366C343.228 137.617 341.425 136.819 339.656 135.977L338.657 138.812ZM349.847 143.376C351.721 144.017 353.629 144.61 355.569 145.15L356.096 142.138C354.209 141.613 352.355 141.037 350.533 140.414L349.847 143.376ZM361.386 146.59C363.285 147.002 365.213 147.365 367.172 147.675L367.387 144.596C365.48 144.293 363.602 143.94 361.754 143.539L361.386 146.59ZM373.014 148.436C374.946 148.633 376.905 148.78 378.893 148.875L378.812 145.764C376.872 145.672 374.961 145.528 373.078 145.336L373.014 148.436ZM384.684 149C386.609 148.992 388.56 148.936 390.535 148.829L390.185 145.72C388.253 145.824 386.346 145.879 384.466 145.887L384.684 149ZM396.276 148.382C398.169 148.19 400.085 147.952 402.023 147.666L401.433 144.581C399.533 144.861 397.656 145.094 395.803 145.282L396.276 148.382ZM407.698 146.705C409.553 146.35 411.428 145.953 413.322 145.511L412.523 142.466C410.661 142.9 408.82 143.29 407 143.638L407.698 146.705ZM418.891 144.1C419.828 143.844 420.77 143.577 421.717 143.299L420.778 140.29C419.846 140.563 418.919 140.826 417.997 141.078L418.891 144.1Z" fill="url(#paint0_linear_1_422)"/>
<path d="M108.053 416.371C107.337 416.052 107.039 415.146 107.388 414.348L113.064 401.341C113.413 400.543 114.275 400.154 114.991 400.473C115.707 400.792 116.005 401.698 115.657 402.496L110.611 414.058L120.98 418.677C121.696 418.996 121.994 419.902 121.645 420.7C121.297 421.498 120.434 421.887 119.718 421.568L108.053 416.371ZM241.628 2.79665C241.355 2.01299 241.739 1.09148 242.487 0.738399C243.234 0.385322 244.062 0.734382 244.336 1.51805L241.628 2.79665ZM108.213 413.495C205.125 369.85 251.221 304.095 266.796 230.959C282.403 157.678 267.422 76.7365 241.628 2.79665L244.336 1.51805C270.203 75.6678 285.399 157.278 269.604 231.444C253.778 305.754 206.894 372.338 109.154 416.356L108.213 413.495Z" fill="url(#paint1_linear_1_422)"/>
<defs>
<linearGradient id="paint0_linear_1_422" x1="399.476" y1="135.797" x2="243.029" y2="77.4839" gradientUnits="userSpaceOnUse">
<stop stop-color="#BFF0FF"/>
<stop offset="1" stop-color="#82B4FF"/>
</linearGradient>
<linearGradient id="paint1_linear_1_422" x1="83.4729" y1="254.321" x2="305.747" y2="172.346" gradientUnits="userSpaceOnUse">
<stop stop-color="#BFF0FF"/>
<stop offset="1" stop-color="#82B4FF"/>
</linearGradient>
</defs>
</svg>
