<svg width="27" height="57" viewBox="0 0 27 57" fill="none" xmlns="http://www.w3.org/2000/svg">
<path d="M8.86495 30.3979L8.88121 56.5022L0.036606 56.3322L0.0132902 18.9006C0.0128099 18.0041 0.180736 17.1358 0.491252 16.429C0.801767 15.7222 1.23768 15.2162 1.73197 14.9887C2.22625 14.7612 2.75156 14.8248 3.2271 15.1699C3.70264 15.5149 4.10211 16.1221 4.36407 16.8982C4.3676 16.9045 4.3676 16.9106 4.37112 16.9161L8.86495 30.3979Z" fill="url(#paint0_linear_1_167)"/>
<path d="M26.1223 0.576686L26.1464 38.0454C26.1472 38.9441 25.9787 39.8147 25.6669 40.5227C25.3552 41.2307 24.9176 41.7366 24.4217 41.9625C23.9258 42.1883 23.3992 42.1214 22.9232 41.7721C22.4473 41.4229 22.0484 40.8107 21.7882 40.03L17.2945 26.5399L17.2777 0.406982L26.1223 0.576686Z" fill="url(#paint1_linear_1_167)"/>
<path d="M26.1462 38.1806L26.158 56.5357L17.5847 56.3717L11.4465 37.9968C11.4465 37.9907 11.443 37.9906 11.443 37.9845L11.4395 37.9783L8.84303 30.2116L4.36043 16.7933C4.35691 16.7878 4.3569 16.7817 4.35338 16.7755C4.09207 16.0028 3.69363 15.3982 3.2193 15.0548C2.74497 14.7113 2.22101 14.648 1.72799 14.8745C1.23498 15.101 0.800191 15.6048 0.490485 16.3085C0.180779 17.0121 0.0133006 17.8768 0.0137974 18.7693L0.00195312 0.377441L8.57532 0.541459L15.7758 22.1205C15.7816 22.1288 15.7864 22.139 15.7899 22.1507L16.9297 25.5702L16.9332 25.5764C16.9367 25.5826 16.9367 25.5949 16.9403 25.6003L17.3156 26.726L21.7982 40.1566C22.0575 40.9346 22.4554 41.5448 22.9303 41.893C23.4053 42.2413 23.9308 42.3082 24.4257 42.0833C24.9206 41.8583 25.3573 41.3541 25.6683 40.6487C25.9793 39.9433 26.1472 39.0759 26.1462 38.1806Z" fill="url(#paint2_linear_1_167)"/>
<g style="mix-blend-mode:multiply" opacity="0.16">
<path d="M8.86924 30.481L8.87438 35.7735C5.33498 25.5353 1.60261 25.5791 0.0414232 26.1701L0.0342528 18.7861C0.0334854 17.9156 0.200746 17.0826 0.51032 16.415C0.819893 15.7474 1.25464 15.2824 1.74772 15.0913C2.24079 14.9003 2.76491 14.9938 3.23947 15.3576C3.71403 15.7213 4.11277 16.3351 4.37438 17.1045C4.3779 17.1108 4.3779 17.1168 4.38142 17.1223L8.86924 30.481Z" fill="#312626"/>
</g>
<g style="mix-blend-mode:multiply" opacity="0.16">
<path d="M26.1168 30.7702L26.1239 38.1726C26.1249 39.044 25.9571 39.8779 25.6464 40.5456C25.3356 41.2132 24.8992 41.6773 24.4045 41.8664C23.9099 42.0554 23.3845 41.9588 22.9096 41.5915C22.4347 41.2242 22.0366 40.6066 21.7769 39.834L17.29 26.4843L17.2858 22.1406C20.9833 29.5908 24.3276 30.7832 26.1168 30.7702Z" fill="#312626"/>
</g>
<g style="mix-blend-mode:screen" opacity="0.5">
<path d="M15.8053 22.0229C15.1428 20.3414 14.515 18.6216 13.8696 16.9305L12.9157 14.3477L11.9762 11.7631C11.3482 10.0317 10.7287 8.29549 10.1176 6.55461C9.53541 4.92018 8.97079 3.26957 8.39872 1.63008C7.03828 1.53703 5.68131 1.40333 4.32393 1.29883L2.18009 1.08776C1.56071 1.02838 0.940436 0.963088 0.319289 0.891889C0.296638 2.85816 0.26345 4.81778 0.226755 6.78297C0.166083 8.90921 0.133059 11.0376 0.0513219 13.1622L0.0388184 0.37793L8.60482 1.03743L15.8053 22.0229Z" fill="white"/>
</g>
<g style="mix-blend-mode:multiply" opacity="0.25">
<path d="M26.1166 0.818242L26.151 36.1222C26.025 33.1701 25.9515 30.2207 25.889 27.2738L25.8212 22.8582L25.7785 18.4386L25.7601 14.027L25.7699 9.61699L25.804 5.2036L25.8602 1.2116C25.1177 1.10295 24.3757 0.999697 23.6367 0.872233C22.8099 0.744491 21.9795 0.584365 21.1527 0.413818L26.1166 0.818242Z" fill="#312626"/>
</g>
<g style="mix-blend-mode:screen" opacity="0.5">
<path d="M24.7414 56.5363L17.5529 55.9821L11.4141 38.1047C12.0066 39.5134 12.5711 40.9491 13.1255 42.3957C13.4023 43.1215 13.6794 43.8481 13.9496 44.5851C14.2198 45.3222 14.4931 46.0426 14.7562 46.7849C15.2925 48.2538 15.8162 49.7348 16.3273 51.228C16.5914 51.9646 16.8431 52.7177 17.0957 53.4658L17.756 55.427C18.8862 55.5492 20.0161 55.6882 21.1494 55.8633C22.3451 56.0432 23.5452 56.2519 24.7414 56.5363Z" fill="white"/>
</g>
<g style="mix-blend-mode:multiply" opacity="0.25">
<path d="M8.84222 38.1131L8.86009 56.5073L1.31938 55.9089C1.94635 55.8508 2.57642 55.8177 3.20343 55.7956C3.83043 55.7734 4.46053 55.7762 5.09283 55.7725C5.71943 55.7862 6.34645 55.7829 6.97702 55.815C7.48455 55.8373 7.99251 55.8535 8.50401 55.8821C8.49568 54.5505 8.48735 53.2121 8.4966 51.8819C8.49863 50.348 8.51779 48.8125 8.53607 47.2822C8.56271 45.7563 8.59638 44.2243 8.64366 42.6941C8.69095 41.1639 8.74879 39.6396 8.84222 38.1131Z" fill="#312626"/>
</g>
<g style="mix-blend-mode:screen" opacity="0.7">
<path d="M8.88887 30.3014L4.39721 16.8113C4.39368 16.8057 4.39368 16.7997 4.39016 16.7934C4.12833 16.0163 3.72925 15.3964 3.25431 15.029C2.77937 14.6616 2.25483 14.567 1.76137 14.7597C1.26791 14.9524 0.832825 15.4218 0.52302 16.0957C0.213215 16.7696 0.0458398 17.6108 0.0466265 18.4898L0.0288086 0.376953C0.0966884 1.89232 0.129843 3.40489 0.177053 4.91406C0.202419 5.67106 0.220303 6.42745 0.235116 7.1836L0.281316 9.45217C0.303907 10.9639 0.336616 12.4764 0.345132 13.9825C0.349134 14.4758 0.356642 14.9649 0.360645 15.4582C0.416825 15.36 0.47608 15.2629 0.532261 15.1647C0.641881 15.0073 0.756343 14.8601 0.875208 14.7234C0.997752 14.6004 1.13088 14.5031 1.25696 14.3985C1.39317 14.3135 1.52984 14.252 1.6665 14.1792C1.81023 14.1424 1.95045 14.0993 2.09376 14.0806C2.24105 14.0804 2.38481 14.0738 2.52859 14.0914C2.67241 14.1392 2.81928 14.157 2.96312 14.229C3.10485 14.2985 3.24418 14.3842 3.38017 14.4852C3.51483 14.5932 3.64503 14.7182 3.76964 14.8592C3.89346 15.0048 4.01118 15.1657 4.12184 15.3404C4.22007 15.5288 4.33236 15.7061 4.42049 15.9057L4.66643 16.5294L4.62237 16.4353L4.67129 16.554C5.40248 18.8151 6.1208 21.0912 6.8262 23.3819C7.18143 24.5233 7.52945 25.6723 7.87028 26.8291C8.21347 27.9846 8.56149 29.1321 8.88887 30.3014Z" fill="white"/>
</g>
<g style="mix-blend-mode:screen" opacity="0.7">
<path d="M26.1169 38.4626L26.1345 56.5381C26.0697 55.0284 26.037 53.5159 25.9898 52.0076C25.9426 50.4993 25.92 48.9877 25.8838 47.481C25.8647 45.9749 25.8369 44.4629 25.8196 42.9569C25.8156 42.4636 25.8081 41.9693 25.8041 41.4761C25.7308 41.6083 25.654 41.7403 25.5767 41.867C25.2925 42.2683 24.9598 42.5592 24.5999 42.7211C24.4214 42.8017 24.2384 42.8555 24.053 42.8819C23.8651 42.896 23.6761 42.8768 23.4887 42.8246C23.1126 42.7296 22.749 42.4973 22.4224 42.1436C22.2581 41.9608 22.1061 41.7459 21.9697 41.5034L21.7627 41.1199C21.71 41.0018 21.6607 40.8794 21.615 40.7533L21.5449 40.5725L21.5132 40.4862L21.4814 40.3991L21.4638 40.3494L21.3443 39.9729L21.1021 39.2198L20.6133 37.7063L19.657 34.6757L18.7111 31.6279C18.3948 30.6159 18.0957 29.5871 17.7899 28.5639C17.4872 27.553 17.185 26.536 16.8964 25.5134L17.2726 26.645L21.7652 40.1455C22.0255 40.9267 22.4242 41.5511 22.8999 41.9224C23.3755 42.2936 23.9015 42.391 24.3966 42.1995C24.8919 42.008 25.3286 41.5382 25.6395 40.8628C25.9505 40.1874 26.1182 39.3439 26.1169 38.4626Z" fill="white"/>
</g>
<defs>
<linearGradient id="paint0_linear_1_167" x1="4.45886" y1="56.3342" x2="5.17539" y2="19.0615" gradientUnits="userSpaceOnUse">
<stop stop-color="#81B3FE"/>
<stop offset="1" stop-color="#E0A6F4"/>
</linearGradient>
<linearGradient id="paint1_linear_1_167" x1="21.7007" y1="1.48932" x2="21.008" y2="37.5927" gradientUnits="userSpaceOnUse">
<stop stop-color="#81B3FE"/>
<stop offset="1" stop-color="#A981FE"/>
<stop offset="1" stop-color="#E0A6F4"/>
</linearGradient>
<linearGradient id="paint2_linear_1_167" x1="0.0198751" y1="28.2067" x2="26.1397" y2="28.1899" gradientUnits="userSpaceOnUse">
<stop stop-color="#D8A4F0"/>
<stop offset="0.125" stop-color="#D8A4F0"/>
<stop offset="0.25" stop-color="#D8A4F0"/>
<stop offset="0.375" stop-color="#DDA0FA" stop-opacity="0.847059"/>
<stop offset="0.5" stop-color="#D8A4F0"/>
<stop offset="0.625" stop-color="#D8A4F0"/>
<stop offset="0.75" stop-color="#A981FE"/>
<stop offset="0.875" stop-color="#A981FE"/>
<stop offset="1" stop-color="#A981FE"/>
</linearGradient>
</defs>
</svg>
