<svg width="95" height="133" viewBox="0 0 95 133" fill="none" xmlns="http://www.w3.org/2000/svg">
<path d="M93.5915 44.7702C93.7943 43.9613 93.3999 42.9411 92.7106 42.4916L81.4771 35.1663C80.7878 34.7167 80.0645 35.0081 79.8617 35.817C79.6589 36.6259 80.0533 37.6461 80.7426 38.0956L90.7279 44.607L87.7899 56.3244C87.5871 57.1333 87.9815 58.1535 88.6709 58.603C89.3602 59.0525 90.0834 58.7612 90.2863 57.9523L93.5915 44.7702ZM58.0245 11.5934C57.8294 10.6693 57.1105 9.96071 56.419 10.0106C55.7274 10.0606 55.325 10.8502 55.5202 11.7743L58.0245 11.5934ZM56.7723 11.6838C55.5202 11.7743 55.5202 11.7744 55.5202 11.7745C55.5202 11.7746 55.5203 11.7747 55.5203 11.7748C55.5203 11.775 55.5204 11.7752 55.5204 11.7754C55.5205 11.7759 55.5206 11.7764 55.5207 11.777C55.521 11.7782 55.5213 11.7796 55.5217 11.7813C55.5224 11.7848 55.5234 11.7894 55.5246 11.795C55.527 11.8064 55.5304 11.8221 55.5348 11.842C55.5435 11.8819 55.556 11.9389 55.5725 12.0121C55.6055 12.1584 55.6543 12.3698 55.7194 12.6398C55.8495 13.1795 56.0452 13.954 56.3111 14.911L58.7445 14.4399C58.4947 13.5409 58.3127 12.8196 58.194 12.3275C58.1347 12.0815 58.0913 11.893 58.0632 11.7685C58.0492 11.7062 58.039 11.66 58.0325 11.6305C58.0293 11.6158 58.027 11.6053 58.0257 11.599C58.025 11.5959 58.0246 11.5939 58.0244 11.593C58.0243 11.5925 58.0243 11.5923 58.0243 11.5924C58.0243 11.5924 58.0243 11.5925 58.0244 11.5927C58.0244 11.5928 58.0244 11.5929 58.0244 11.593C58.0244 11.5931 58.0245 11.5932 58.0245 11.5932C58.0245 11.5933 58.0245 11.5934 56.7723 11.6838ZM58.262 21.016C58.934 22.874 59.7419 24.9009 60.6968 26.9782L62.8648 25.7822C61.9749 23.8462 61.2173 21.9468 60.5836 20.1948L58.262 21.016ZM63.6738 32.6791C64.7499 34.4888 65.951 36.2634 67.2856 37.9191L68.8635 35.7646C67.676 34.2914 66.5931 32.6946 65.6099 31.0413L63.6738 32.6791ZM71.57 42.338C73.0549 43.5836 74.6574 44.6529 76.3809 45.4792L76.7841 42.3628C75.2956 41.6492 73.9112 40.7259 72.6236 39.6458L71.57 42.338ZM81.3867 47.0805C82.9313 47.3413 84.5448 47.4089 86.2288 47.2566L85.4887 43.913C83.9595 44.0513 82.5154 43.988 81.1526 43.7579L81.3867 47.0805ZM90.792 46.3403C91.5055 46.121 92.2302 45.864 92.9662 45.5675L91.7204 42.345C91.0286 42.6237 90.3507 42.864 89.6866 43.0681L90.792 46.3403Z" fill="url(#paint0_linear_1_252)"/>
<path d="M23.1655 127.628C22.5432 127.352 22.3304 126.413 22.6902 125.53L28.5538 111.144C28.9136 110.261 29.7098 109.769 30.3322 110.045C30.9545 110.321 31.1673 111.261 30.8075 112.144L25.5954 124.931L34.6103 128.932C35.2326 129.209 35.4454 130.148 35.0856 131.031C34.7258 131.914 33.9296 132.406 33.3072 132.129L23.1655 127.628ZM51.97 2.89108C51.764 2.08453 52.1553 1.06355 52.844 0.610658C53.5327 0.157764 54.2581 0.444457 54.4641 1.25101L51.97 2.89108ZM23.4809 124.546C33.9469 118.082 41.6 110.029 47.0531 100.962C52.5096 91.8899 55.8274 81.697 57.5071 70.8665C60.8759 49.1449 57.6274 25.0389 51.97 2.89108L54.4641 1.25101C60.161 23.5535 63.556 48.245 60.058 70.7992C58.3043 82.1066 54.8111 92.9212 48.9791 102.618C43.1437 112.32 35.0307 120.796 24.1532 127.514L23.4809 124.546Z" fill="url(#paint1_linear_1_252)"/>
<defs>
<linearGradient id="paint0_linear_1_252" x1="87.5665" y1="42.1607" x2="51.1773" y2="32.2711" gradientUnits="userSpaceOnUse">
<stop stop-color="#BFF0FF"/>
<stop offset="1" stop-color="#82B4FF"/>
</linearGradient>
<linearGradient id="paint1_linear_1_252" x1="18.2632" y1="77.816" x2="69.9046" y2="63.8716" gradientUnits="userSpaceOnUse">
<stop stop-color="#BFF0FF"/>
<stop offset="1" stop-color="#82B4FF"/>
</linearGradient>
</defs>
</svg>
