<svg width="363" height="455" viewBox="0 0 363 455" fill="none" xmlns="http://www.w3.org/2000/svg">
<path d="M106.545 444.35C106.435 445.198 105.698 445.856 104.898 445.819L91.8629 445.217C91.063 445.18 90.5036 444.462 90.6135 443.614C90.7233 442.766 91.4608 442.108 92.2607 442.145L103.847 442.681L105.438 430.395C105.548 429.547 106.286 428.889 107.086 428.926C107.886 428.963 108.445 429.681 108.335 430.529L106.545 444.35ZM103.932 445.322C66.3111 397.067 50.9377 361.977 49.4496 335.953C48.7026 322.89 51.4536 312.092 56.6544 303.104C61.8441 294.135 69.4076 287.08 78.1316 281.383C95.5238 270.026 117.848 263.876 136.028 258.752C145.18 256.172 153.238 253.867 159.239 251.301C162.237 250.02 164.63 248.71 166.357 247.331C168.079 245.956 169.017 244.612 169.35 243.266L172.176 243.775C171.596 246.12 170.047 248.069 167.983 249.716C165.924 251.361 163.231 252.804 160.118 254.135C153.895 256.795 145.626 259.155 136.534 261.717C118.228 266.876 96.4046 272.916 79.5018 283.954C71.0782 289.454 63.9574 296.149 59.1147 304.518C54.2833 312.867 51.6541 322.996 52.3683 335.486C53.8024 360.567 68.7165 395.087 106.261 443.245L103.932 445.322ZM169.35 243.266C170.061 240.39 168.862 237.386 165.532 234.16C162.232 230.963 157.133 227.852 150.892 224.812C138.417 218.737 121.845 213.162 107.126 207.768C99.7935 205.081 92.9226 202.438 87.3132 199.813C81.7544 197.211 77.2448 194.543 74.802 191.737C73.5716 190.324 72.7254 188.718 72.7132 186.917C72.7006 185.051 73.5807 183.326 75.0986 181.789C76.5905 180.278 78.7801 178.857 81.6531 177.483C84.5428 176.1 88.2138 174.722 92.7429 173.338L93.3124 176.285C88.8697 177.642 85.3549 178.968 82.6528 180.261C79.934 181.562 78.1259 182.789 77.0225 183.906C75.945 184.997 75.632 185.879 75.6369 186.61C75.6423 187.404 76.0242 188.382 77.0407 189.55C79.0918 191.906 83.1513 194.385 88.7031 196.984C94.2042 199.559 100.985 202.169 108.311 204.854C122.912 210.205 139.687 215.85 152.317 222C158.629 225.074 164.021 228.327 167.619 231.812C171.187 235.269 173.29 239.266 172.176 243.775L169.35 243.266ZM92.7429 173.338C128.72 162.348 203.131 141.412 252.222 113.161C264.479 106.108 275.087 98.6363 283.101 90.8012C291.121 82.9601 296.442 74.855 298.323 66.5305C302.048 50.0526 292.455 31.4843 259.763 11.2864L261.413 8.59808C294.196 28.8529 305.368 48.379 301.165 66.973C299.083 76.1846 293.268 84.8599 284.983 92.9607C276.691 101.067 265.823 108.699 253.436 115.827C203.953 144.304 129.109 165.35 93.3124 176.285L92.7429 173.338Z" fill="url(#paint0_linear_1_407)"/>
<defs>
<linearGradient id="paint0_linear_1_407" x1="71.7481" y1="261.566" x2="330.936" y2="210.339" gradientUnits="userSpaceOnUse">
<stop stop-color="#AB83FE"/>
<stop offset="1" stop-color="#FBAE96"/>
</linearGradient>
</defs>
</svg>
