<svg width="28" height="57" viewBox="0 0 28 57" fill="none" xmlns="http://www.w3.org/2000/svg">
<path d="M9.86349 30.4763L9.87975 56.5806L1.03514 56.4106L1.01183 18.979C1.01135 18.0825 1.17927 17.2141 1.48979 16.5074C1.8003 15.8006 2.23621 15.2945 2.7305 15.0671C3.22479 14.8396 3.75009 14.9032 4.22564 15.2482C4.70118 15.5933 5.10064 16.2005 5.36261 16.9766C5.36613 16.9828 5.36613 16.989 5.36966 16.9945L9.86349 30.4763Z" fill="url(#paint0_linear_1_219)"/>
<path d="M27.1209 0.655055L27.145 38.1237C27.1457 39.0225 26.9772 39.8931 26.6655 40.6011C26.3537 41.3091 25.9161 41.815 25.4202 42.0409C24.9243 42.2667 24.3977 42.1998 23.9218 41.8505C23.4458 41.5013 23.0469 40.889 22.7868 40.1084L18.2931 26.6182L18.2762 0.485352L27.1209 0.655055Z" fill="url(#paint1_linear_1_219)"/>
<path d="M27.1447 38.259L27.1565 56.6141L18.5832 56.45L12.445 38.0752C12.445 38.069 12.4415 38.069 12.4415 38.0628L12.438 38.0566L9.84156 30.29L5.35896 16.8716C5.35545 16.8662 5.35543 16.8601 5.35192 16.8539C5.09061 16.0812 4.69217 15.4766 4.21784 15.1331C3.7435 14.7897 3.21955 14.7264 2.72653 14.9528C2.23351 15.1794 1.79873 15.6832 1.48902 16.3868C1.17931 17.0905 1.01184 17.9551 1.01233 18.8477L1.00049 0.455811L9.57385 0.619828L16.7744 22.1989C16.7802 22.2072 16.785 22.2174 16.7884 22.2291L17.9282 25.6486L17.9317 25.6548C17.9353 25.661 17.9353 25.6733 17.9388 25.6787L18.3141 26.8044L22.7968 40.235C23.0561 41.013 23.454 41.6232 23.9289 41.9714C24.4038 42.3197 24.9293 42.3865 25.4242 42.1616C25.9191 41.9367 26.3558 41.4325 26.6668 40.7271C26.9778 40.0217 27.1457 39.1543 27.1447 38.259Z" fill="url(#paint2_linear_1_219)"/>
<g style="mix-blend-mode:multiply" opacity="0.16">
<path d="M9.86777 30.5593L9.87291 35.8519C6.33352 25.6137 2.60115 25.6574 1.03996 26.2485L1.03279 18.8645C1.03202 17.994 1.19928 17.1609 1.50885 16.4934C1.81843 15.8258 2.25317 15.3608 2.74625 15.1697C3.23933 14.9787 3.76344 15.0722 4.238 15.4359C4.71256 15.7997 5.1113 16.4134 5.37291 17.1829C5.37643 17.1892 5.37643 17.1951 5.37995 17.2007L9.86777 30.5593Z" fill="#312626"/>
</g>
<g style="mix-blend-mode:multiply" opacity="0.16">
<path d="M27.1153 30.8485L27.1225 38.251C27.1235 39.1224 26.9556 39.9563 26.6449 40.6239C26.3341 41.2915 25.8977 41.7556 25.403 41.9447C24.9084 42.1338 24.3831 42.0371 23.9082 41.6698C23.4332 41.3025 23.0351 40.6849 22.7754 39.9124L18.2885 26.5627L18.2843 22.219C21.9818 29.6692 25.3262 30.8616 27.1153 30.8485Z" fill="#312626"/>
</g>
<g style="mix-blend-mode:screen" opacity="0.5">
<path d="M16.8039 22.1013C16.1414 20.4198 15.5135 18.7 14.8681 17.0088L13.9142 14.4261L12.9748 11.8415C12.3468 10.11 11.7272 8.37386 11.1161 6.63298C10.5339 4.99855 9.96932 3.34794 9.39725 1.70845C8.03681 1.6154 6.67985 1.4817 5.32247 1.3772L3.17863 1.16613C2.55925 1.10675 1.93897 1.04146 1.31782 0.970258C1.29517 2.93653 1.26198 4.89615 1.22529 6.86134C1.16462 8.98758 1.13159 11.116 1.04986 13.2406L1.03735 0.456299L9.60336 1.1158L16.8039 22.1013Z" fill="white"/>
</g>
<g style="mix-blend-mode:multiply" opacity="0.25">
<path d="M27.1151 0.896611L27.1495 36.2005C27.0235 33.2484 26.95 30.2991 26.8876 27.3522L26.8198 22.9366L26.777 18.5169L26.7586 14.1054L26.7684 9.69536L26.8026 5.28197L26.8587 1.28997C26.1162 1.18132 25.3742 1.07807 24.6352 0.950602C23.8084 0.82286 22.9781 0.662734 22.1512 0.492188L27.1151 0.896611Z" fill="#312626"/>
</g>
<g style="mix-blend-mode:screen" opacity="0.5">
<path d="M25.74 56.6146L18.5514 56.0605L12.4126 38.1831C13.0051 39.5917 13.5696 41.0274 14.124 42.4741C14.4008 43.1999 14.6779 43.9265 14.9481 44.6635C15.2183 45.4005 15.4916 46.121 15.7548 46.8633C16.291 48.3322 16.8147 49.8132 17.3259 51.3064C17.5899 52.043 17.8416 52.7961 18.0943 53.5442L18.7545 55.5054C19.8847 55.6276 21.0146 55.7666 22.148 55.9417C23.3437 56.1215 24.5437 56.3302 25.74 56.6146Z" fill="white"/>
</g>
<g style="mix-blend-mode:multiply" opacity="0.25">
<path d="M9.84075 38.1914L9.85862 56.5857L2.31792 55.9873C2.94489 55.9292 3.57496 55.8961 4.20196 55.8739C4.82896 55.8518 5.45907 55.8546 6.09136 55.8508C6.71796 55.8646 7.34498 55.8613 7.97556 55.8933C8.48309 55.9156 8.99105 55.9319 9.50254 55.9605C9.49422 54.6288 9.48588 53.2905 9.49514 51.9602C9.49716 50.4264 9.51632 48.8909 9.53461 47.3606C9.56125 45.8347 9.59491 44.3027 9.6422 42.7725C9.68949 41.2422 9.74732 39.718 9.84075 38.1914Z" fill="#312626"/>
</g>
<g style="mix-blend-mode:screen" opacity="0.7">
<path d="M9.88741 30.3798L5.39574 16.8897C5.39222 16.8841 5.39222 16.8781 5.38869 16.8717C5.12686 16.0947 4.72779 15.4748 4.25285 15.1074C3.7779 14.74 3.25337 14.6454 2.75991 14.838C2.26644 15.0308 1.83136 15.5002 1.52156 16.1741C1.21175 16.848 1.04437 17.6892 1.04516 18.5682L1.02734 0.455322C1.09522 1.97069 1.12838 3.48326 1.17559 4.99243C1.20095 5.74943 1.21884 6.50582 1.23365 7.26197L1.27985 9.53054C1.30244 11.0423 1.33515 12.5548 1.34367 14.0609C1.34767 14.5542 1.35518 15.0432 1.35918 15.5366C1.41536 15.4384 1.47462 15.3412 1.5308 15.2431C1.64042 15.0857 1.75488 14.9385 1.87374 14.8018C1.99629 14.6787 2.12941 14.5815 2.25549 14.4768C2.39171 14.3919 2.52837 14.3304 2.66504 14.2576C2.80877 14.2208 2.94899 14.1777 3.0923 14.159C3.23959 14.1588 3.38334 14.1522 3.52713 14.1698C3.67094 14.2175 3.81781 14.2354 3.96165 14.3073C4.10339 14.3769 4.24271 14.4625 4.3787 14.5635C4.51336 14.6716 4.64356 14.7966 4.76818 14.9375C4.89199 15.0832 5.00972 15.2441 5.12038 15.4188C5.21861 15.6071 5.3309 15.7845 5.41903 15.9841L5.66497 16.6078L5.62091 16.5137L5.66983 16.6323C6.40101 18.8935 7.11933 21.1695 7.82474 23.4603C8.17997 24.6016 8.52799 25.7507 8.86881 26.9075C9.21201 28.0629 9.56003 29.2105 9.88741 30.3798Z" fill="white"/>
</g>
<g style="mix-blend-mode:screen" opacity="0.7">
<path d="M27.1154 38.541L27.133 56.6165C27.0682 55.1068 27.0356 53.5943 26.9884 52.086C26.9412 50.5777 26.9185 49.066 26.8823 47.5593C26.8633 46.0533 26.8355 44.5412 26.8182 43.0353C26.8142 42.542 26.8067 42.0477 26.8027 41.5544C26.7293 41.6867 26.6525 41.8187 26.5752 41.9454C26.2911 42.3467 25.9583 42.6375 25.5984 42.7995C25.4199 42.8801 25.2369 42.9339 25.0515 42.9602C24.8637 42.9744 24.6746 42.9552 24.4873 42.903C24.1112 42.8079 23.7475 42.5757 23.421 42.222C23.2566 42.0392 23.1046 41.8243 22.9683 41.5818L22.7612 41.1983C22.7085 41.0802 22.6593 40.9578 22.6135 40.8317L22.5434 40.6509L22.5117 40.5646L22.4799 40.4775L22.4623 40.4278L22.3428 40.0513L22.1006 39.2981L21.6118 37.7846L20.6555 34.7541L19.7096 31.7062C19.3933 30.6942 19.0942 29.6655 18.7884 28.6422C18.4858 27.6313 18.1835 26.6144 17.8949 25.5918L18.2712 26.7233L22.7638 40.2239C23.024 41.0051 23.4228 41.6295 23.8984 42.0007C24.374 42.372 24.9 42.4693 25.3952 42.2778C25.8904 42.0864 26.3272 41.6166 26.6381 40.9412C26.949 40.2657 27.1168 39.4223 27.1154 38.541Z" fill="white"/>
</g>
<defs>
<linearGradient id="paint0_linear_1_219" x1="5.45739" y1="56.4126" x2="6.17392" y2="19.1399" gradientUnits="userSpaceOnUse">
<stop stop-color="#81B3FE"/>
<stop offset="1" stop-color="#E0A6F4"/>
</linearGradient>
<linearGradient id="paint1_linear_1_219" x1="22.6992" y1="1.56768" x2="22.0065" y2="37.6711" gradientUnits="userSpaceOnUse">
<stop stop-color="#81B3FE"/>
<stop offset="1" stop-color="#A981FE"/>
<stop offset="1" stop-color="#E0A6F4"/>
</linearGradient>
<linearGradient id="paint2_linear_1_219" x1="1.01841" y1="28.2851" x2="27.1383" y2="28.2683" gradientUnits="userSpaceOnUse">
<stop stop-color="#D8A4F0"/>
<stop offset="0.125" stop-color="#D8A4F0"/>
<stop offset="0.25" stop-color="#D8A4F0"/>
<stop offset="0.375" stop-color="#DDA0FA" stop-opacity="0.847059"/>
<stop offset="0.5" stop-color="#D8A4F0"/>
<stop offset="0.625" stop-color="#D8A4F0"/>
<stop offset="0.75" stop-color="#A981FE"/>
<stop offset="0.875" stop-color="#A981FE"/>
<stop offset="1" stop-color="#A981FE"/>
</linearGradient>
</defs>
</svg>
