<svg width="25" height="28" viewBox="0 0 25 28" fill="none" xmlns="http://www.w3.org/2000/svg">
<g clip-path="url(#clip0_1_472)">
<path d="M15.5317 6.04066C16.5071 6.25798 17.4035 6.80271 18.1062 7.60516C18.8089 8.4076 19.286 9.43124 19.4763 10.5451L15.5317 6.04066ZM15.5317 1.47925C17.5582 1.73633 19.4479 2.77261 20.8905 4.41795C22.3332 6.06329 23.243 8.21989 23.4707 10.5337L15.5317 1.47925ZM22.4721 19.6337V23.0547C22.4732 23.3723 22.4163 23.6867 22.3048 23.9777C22.1934 24.2687 22.03 24.5299 21.8251 24.7446C21.6201 24.9593 21.3782 25.1228 21.1147 25.2245C20.8513 25.3263 20.5721 25.364 20.2951 25.3355C17.2222 24.9542 14.2705 23.7551 11.6771 21.8346C9.26428 20.0837 7.21863 17.7477 5.68542 14.9924C3.99774 12.0175 2.94747 8.6304 2.61968 5.10557C2.59472 4.79023 2.62754 4.4724 2.71604 4.17234C2.80455 3.87227 2.94679 3.59653 3.13373 3.36268C3.32067 3.12883 3.54819 2.94199 3.80183 2.81406C4.05546 2.68612 4.32964 2.6199 4.60692 2.6196H7.60276C8.08739 2.61416 8.55722 2.81013 8.92468 3.171C9.29214 3.53187 9.53215 4.03301 9.59998 4.58101C9.72643 5.67583 9.96093 6.75079 10.299 7.78541C10.4334 8.19357 10.4624 8.63715 10.3828 9.06361C10.3032 9.49006 10.1181 9.8815 9.84964 10.1916L8.5814 11.6398C10.003 14.4947 12.073 16.8586 14.5731 18.4819L15.8413 17.0337C16.1128 16.7271 16.4556 16.5158 16.8291 16.4248C17.2025 16.3339 17.591 16.3671 17.9484 16.5205C18.8544 16.9066 19.7958 17.1744 20.7545 17.3188C21.2396 17.3969 21.6826 17.6759 21.9993 18.1028C22.316 18.5296 22.4843 19.0744 22.4721 19.6337Z" stroke="white" stroke-linecap="round" stroke-linejoin="round"/>
</g>
<defs>
<clipPath id="clip0_1_472">
<rect width="23.9667" height="27.3685" fill="white" transform="translate(0.502563 0.338867)"/>
</clipPath>
</defs>
</svg>
