<svg width="7" height="7" viewBox="0 0 7 7" fill="none" xmlns="http://www.w3.org/2000/svg">
<g clip-path="url(#clip0_1_198)">
<path d="M4.38958 1.45841C4.67447 1.514 4.93628 1.65332 5.14152 1.85856C5.34676 2.0638 5.48609 2.32562 5.54167 2.6105L4.38958 1.45841ZM4.38958 0.291748C4.98146 0.3575 5.53338 0.622549 5.95474 1.04338C6.37609 1.4642 6.64184 2.01579 6.70833 2.60758L4.38958 0.291748ZM6.41667 4.93508V5.81008C6.417 5.89131 6.40036 5.97171 6.36782 6.04614C6.33527 6.12057 6.28755 6.18738 6.22769 6.24229C6.16783 6.29721 6.09717 6.33901 6.02022 6.36504C5.94327 6.39106 5.86173 6.40073 5.78083 6.39341C4.88333 6.29589 4.02121 5.98921 3.26375 5.498C2.55903 5.05019 1.96156 4.45271 1.51375 3.748C1.02083 2.9871 0.714072 2.12079 0.618334 1.21925C0.611046 1.13859 0.620631 1.0573 0.64648 0.980555C0.672329 0.903807 0.713876 0.833282 0.768474 0.773471C0.823073 0.713659 0.889527 0.665872 0.963607 0.63315C1.03769 0.600429 1.11777 0.583491 1.19875 0.583415H2.07375C2.2153 0.582022 2.35252 0.632146 2.45985 0.724445C2.56717 0.816744 2.63727 0.94492 2.65708 1.08508C2.69402 1.3651 2.76251 1.64004 2.86125 1.90466C2.90049 2.00906 2.90899 2.12251 2.88572 2.23159C2.86246 2.34066 2.80842 2.44078 2.73 2.52008L2.35958 2.8905C2.77479 3.6207 3.37938 4.22529 4.10958 4.6405L4.48 4.27008C4.5593 4.19166 4.65942 4.13762 4.76849 4.11436C4.87757 4.0911 4.99102 4.09959 5.09542 4.13883C5.36004 4.23758 5.63498 4.30607 5.915 4.343C6.05668 4.36299 6.18608 4.43435 6.27857 4.54352C6.37107 4.65268 6.42022 4.79204 6.41667 4.93508Z" stroke="white" stroke-linecap="round" stroke-linejoin="round"/>
</g>
<defs>
<clipPath id="clip0_1_198">
<rect width="7" height="7" fill="white"/>
</clipPath>
</defs>
</svg>
