<svg width="7" height="7" viewBox="0 0 7 7" fill="none" xmlns="http://www.w3.org/2000/svg">
<g clip-path="url(#clip0_1_307)">
<path d="M4.38958 1.45835C4.67447 1.51394 4.93628 1.65326 5.14152 1.8585C5.34676 2.06374 5.48609 2.32556 5.54167 2.61044L4.38958 1.45835ZM4.38958 0.291687C4.98146 0.357439 5.53338 0.622488 5.95474 1.04331C6.37609 1.46414 6.64184 2.01573 6.70833 2.60752L4.38958 0.291687ZM6.41667 4.93502V5.81002C6.417 5.89125 6.40036 5.97165 6.36782 6.04608C6.33527 6.12051 6.28755 6.18732 6.22769 6.24223C6.16783 6.29714 6.09717 6.33895 6.02022 6.36498C5.94327 6.391 5.86173 6.40066 5.78083 6.39335C4.88333 6.29583 4.02121 5.98915 3.26375 5.49794C2.55903 5.05013 1.96156 4.45265 1.51375 3.74794C1.02083 2.98704 0.714072 2.12073 0.618334 1.21919C0.611046 1.13853 0.620631 1.05724 0.64648 0.980494C0.672329 0.903746 0.713876 0.833221 0.768474 0.77341C0.823073 0.713598 0.889527 0.665811 0.963607 0.633089C1.03769 0.600368 1.11777 0.58343 1.19875 0.583354H2.07375C2.2153 0.581961 2.35252 0.632085 2.45985 0.724384C2.56717 0.816683 2.63727 0.944859 2.65708 1.08502C2.69402 1.36504 2.76251 1.63998 2.86125 1.9046C2.90049 2.009 2.90899 2.12245 2.88572 2.23153C2.86246 2.3406 2.80842 2.44072 2.73 2.52002L2.35958 2.89044C2.77479 3.62064 3.37938 4.22523 4.10958 4.64044L4.48 4.27002C4.5593 4.1916 4.65942 4.13756 4.76849 4.1143C4.87757 4.09104 4.99102 4.09953 5.09542 4.13877C5.36004 4.23751 5.63498 4.30601 5.915 4.34294C6.05668 4.36292 6.18608 4.43429 6.27857 4.54346C6.37107 4.65262 6.42022 4.79198 6.41667 4.93502Z" stroke="white" stroke-linecap="round" stroke-linejoin="round"/>
</g>
<defs>
<clipPath id="clip0_1_307">
<rect width="7" height="7" fill="white"/>
</clipPath>
</defs>
</svg>
