<svg width="64" height="88" viewBox="0 0 64 88" fill="none" xmlns="http://www.w3.org/2000/svg">
<mask id="mask0_1_366" style="mask-type:luminance" maskUnits="userSpaceOnUse" x="-1" y="0" width="65" height="88">
<path d="M64.0001 0.999895L0.128662 0.871582L-0.000574955 87.6826L63.8708 87.8109L64.0001 0.999895Z" fill="white"/>
</mask>
<g mask="url(#mask0_1_366)">
<path d="M21.6329 47.1842L21.5725 87.7199L-0.000773316 87.6765L0.0857585 29.5514C0.0880215 28.1594 0.500957 26.8067 1.26108 25.7015C2.02121 24.5962 3.08643 23.7995 4.29298 23.434C5.49953 23.0683 6.78061 23.154 7.93925 23.6779C9.09788 24.2018 10.0699 25.1348 10.7059 26.3335C10.7145 26.3431 10.7145 26.3526 10.7231 26.361L21.6329 47.1842Z" fill="url(#paint0_linear_1_366)"/>
<path d="M64 0.999882L63.9133 59.1824C63.9116 60.5781 63.4972 61.9342 62.7341 63.0413C61.971 64.1485 60.9016 64.945 59.6911 65.3081C58.4805 65.6711 57.1964 65.5802 56.0368 65.0498C54.8771 64.5193 53.9066 63.5785 53.2751 62.3728L42.3663 41.5365L42.4268 0.956543L64 0.999882Z" fill="url(#paint1_linear_1_366)"/>
<path d="M63.9135 59.1824L63.8709 87.8109L42.9055 87.7688L27.9664 59.262C27.9664 59.2525 27.9578 59.2525 27.9578 59.2429L27.9492 59.2333L21.63 47.1842L10.7201 26.3671C10.7115 26.3587 10.7115 26.3491 10.7029 26.3395C10.0669 25.1408 9.09491 24.2077 7.93628 23.684C6.77764 23.16 5.49655 23.0744 4.29 23.4399C3.08346 23.8055 2.01823 24.6021 1.25811 25.7074C0.497981 26.8126 0.0850461 28.1654 0.0827831 29.5575L0.125488 0.871582L21.0909 0.9137L38.6156 34.3916C38.6297 34.4044 38.6414 34.4202 38.6498 34.4383L41.4239 39.7434L41.4325 39.753C41.441 39.7626 41.441 39.7817 41.4496 39.7901L42.3631 41.5365L53.273 62.3728C53.9041 63.5797 54.8747 64.5215 56.0347 65.0529C57.1948 65.5842 58.4797 65.6754 59.6909 65.3123C60.902 64.9491 61.9719 64.1518 62.7352 63.0438C63.4985 61.9358 63.9125 60.5788 63.9135 59.1824Z" fill="url(#paint2_linear_1_366)"/>
<g style="mix-blend-mode:multiply" opacity="0.16">
<path d="M21.6329 47.1841L21.6203 55.6475C13.0147 39.7053 3.88831 40.2298 0.0681798 41.3653L0.0857585 29.5573C0.0880215 28.1652 0.500957 26.8126 1.26108 25.7073C2.02121 24.602 3.08643 23.8053 4.29298 23.4397C5.49953 23.0742 6.78061 23.1599 7.93925 23.6838C9.09788 24.2077 10.0699 25.1407 10.706 26.3394C10.7145 26.349 10.7145 26.3585 10.7231 26.3669L21.6329 47.1841Z" fill="#312626"/>
</g>
<g style="mix-blend-mode:multiply" opacity="0.16">
<path d="M63.931 47.3265L63.9134 59.1823C63.9116 60.578 63.4972 61.9341 62.7341 63.0412C61.971 64.1484 60.9016 64.9449 59.6911 65.308C58.4805 65.671 57.1964 65.5802 56.0368 65.0497C54.8771 64.5192 53.9066 63.5785 53.2751 62.3727L42.3664 41.5364L42.3767 34.5796C51.3832 46.0625 59.5558 47.5652 63.931 47.3265Z" fill="#312626"/>
</g>
<g style="mix-blend-mode:screen" opacity="0.5">
<path d="M38.6187 34.3916C37.0051 31.7194 35.4764 28.9805 33.9047 26.2905L31.5822 22.1784L29.2951 18.0616C27.7661 15.3036 26.2579 12.5368 24.7704 9.76123C23.3532 7.15644 21.9791 4.52303 20.5867 1.90873C17.2569 1.92117 13.9359 1.86667 10.6137 1.85999L5.36682 1.77413C3.85094 1.75196 2.33289 1.7202 0.812739 1.67888C0.747793 4.9001 0.657085 8.1117 0.557768 11.3328C0.398979 14.8205 0.307858 18.3083 0.0975117 21.7959L0.128662 0.871582L21.094 0.9137L38.6187 34.3916Z" fill="white"/>
</g>
<g style="mix-blend-mode:multiply" opacity="0.25">
<path d="M63.9999 0.999852L63.9177 56.2277C63.6248 51.6247 63.4598 47.0195 63.3217 42.4168L63.1774 35.517L63.0941 28.6078L63.07 21.7083L63.1147 14.8078L63.2185 7.89894L63.3739 1.64668C61.5674 1.56772 59.7619 1.49713 57.964 1.38829C55.9524 1.28979 53.9322 1.14105 51.9207 0.975586L63.9999 0.999852Z" fill="#312626"/>
</g>
<g style="mix-blend-mode:screen" opacity="0.5">
<path d="M60.4973 87.804L42.9057 87.7687L27.9666 59.262C29.41 61.4949 30.7848 63.7756 32.1348 66.0753C32.8087 67.2294 33.4835 68.3846 34.1413 69.5578C34.799 70.7309 35.4645 71.8766 36.105 73.0593C37.4104 75.3977 38.6851 77.7574 39.929 80.1386C40.5717 81.3118 41.1842 82.5135 41.799 83.7069L43.4055 86.8358C46.1712 86.8988 48.9359 86.9892 51.7091 87.1383C54.6347 87.2876 57.5709 87.4837 60.4973 87.804Z" fill="white"/>
</g>
<g style="mix-blend-mode:multiply" opacity="0.25">
<path d="M21.6161 58.3632L21.5724 87.7259L3.14086 87.6888C4.67386 87.5197 6.21431 87.3901 7.74723 87.2784C9.28014 87.1667 10.8205 87.0944 12.3663 87.0115C13.898 86.9571 15.4309 86.8754 16.9723 86.8498C18.2129 86.8236 19.4546 86.7877 20.7049 86.7711C20.6909 84.6463 20.6769 82.5107 20.7058 80.386C20.718 77.9371 20.7722 75.4834 20.8242 73.0382C20.8965 70.599 20.9861 68.1492 21.109 65.7006C21.2319 63.252 21.3805 60.8116 21.6161 58.3632Z" fill="#312626"/>
</g>
<g style="mix-blend-mode:screen" opacity="0.7">
<path d="M21.6331 47.1842L10.7233 26.3671C10.7147 26.3587 10.7147 26.3491 10.7061 26.3395C10.0701 25.1408 9.09808 24.2077 7.93945 23.684C6.78081 23.16 5.49973 23.0744 4.29318 23.4399C3.08663 23.8055 2.0214 24.6021 1.26128 25.7074C0.501155 26.8126 0.0882199 28.1654 0.0859569 29.5575L0.128662 0.871582C0.287291 3.26339 0.361094 5.65504 0.469251 8.03957C0.52762 9.23544 0.567713 10.4313 0.600304 11.6271L0.70238 15.2145C0.750377 17.6061 0.823089 19.9978 0.836725 22.3821C0.844155 23.1629 0.86017 23.9366 0.8676 24.7175C1.00533 24.5551 1.15056 24.394 1.28829 24.2316C1.55686 23.969 1.83722 23.7218 2.12828 23.4908C2.42827 23.2809 2.75398 23.1106 3.06252 22.9294C3.39572 22.7783 3.72991 22.6641 4.06416 22.5321C4.4155 22.4563 4.75829 22.3708 5.10852 22.3237C5.46837 22.3053 5.81962 22.2773 6.17084 22.2876C6.52198 22.3457 6.88073 22.356 7.23182 22.4523C7.57777 22.5452 7.91776 22.6638 8.24953 22.8071C8.57802 22.9618 8.89552 23.1438 9.19931 23.3519C9.50113 23.5674 9.78798 23.8078 10.0575 24.0711C10.2966 24.3573 10.5701 24.6245 10.7845 24.9299L11.3824 25.8877L11.2752 25.744L11.3942 25.926C13.1698 29.4179 14.914 32.935 16.6265 36.477C17.489 38.2413 18.3338 40.0186 19.161 41.8091C19.994 43.5973 20.8388 45.3723 21.6331 47.1842Z" fill="white"/>
</g>
<g style="mix-blend-mode:screen" opacity="0.7">
<path d="M63.9136 59.1822L63.871 87.8107C63.7199 85.4273 63.6473 83.0357 63.5391 80.6523C63.431 78.269 63.3829 75.8774 63.3015 73.4953C63.2621 71.1121 63.2014 68.7205 63.1662 66.3373C63.1588 65.5564 63.1428 64.7744 63.1353 63.9936C62.9556 64.212 62.7674 64.4305 62.578 64.6405C61.882 65.3108 61.0679 65.8121 60.188 66.1125C59.7516 66.2619 59.3043 66.3695 58.8513 66.4338C58.3925 66.4792 57.9308 66.4718 57.4734 66.4119C56.5552 66.3073 55.668 65.9837 54.8721 65.4633C54.4716 65.1938 54.1013 64.872 53.7694 64.5045L53.2654 63.9223C53.1373 63.7416 53.0175 63.5538 52.9064 63.3596L52.736 63.0818L52.659 62.9489L52.5818 62.8149L52.539 62.7383L52.2488 62.1565L51.6609 60.9931L50.4741 58.6554L48.1526 53.9718L45.8566 49.2595C45.0888 47.6951 44.363 46.1021 43.621 44.5187C42.8865 42.9544 42.153 41.3805 41.4529 39.7959L42.3666 41.5423L53.2763 62.3786C53.9083 63.5842 54.8793 64.5246 56.0393 65.0546C57.1993 65.5846 58.4836 65.6748 59.694 65.311C60.9045 64.9473 61.9736 64.15 62.7362 63.0423C63.4989 61.9345 63.9127 60.578 63.9136 59.1822Z" fill="white"/>
</g>
</g>
<defs>
<linearGradient id="paint0_linear_1_366" x1="10.7861" y1="87.5693" x2="10.9024" y2="29.6689" gradientUnits="userSpaceOnUse">
<stop stop-color="#81B3FE"/>
<stop offset="1" stop-color="#E0A6F4"/>
</linearGradient>
<linearGradient id="paint1_linear_1_366" x1="53.2111" y1="2.52713" x2="53.0984" y2="58.6108" gradientUnits="userSpaceOnUse">
<stop stop-color="#81B3FE"/>
<stop offset="1" stop-color="#A981FE"/>
<stop offset="1" stop-color="#E0A6F4"/>
</linearGradient>
<linearGradient id="paint2_linear_1_366" x1="0.0608697" y1="44.2771" x2="63.9356" y2="44.3722" gradientUnits="userSpaceOnUse">
<stop stop-color="#D8A4F0"/>
<stop offset="0.125" stop-color="#D8A4F0"/>
<stop offset="0.25" stop-color="#D8A4F0"/>
<stop offset="0.375" stop-color="#DDA0FA" stop-opacity="0.847059"/>
<stop offset="0.5" stop-color="#D8A4F0"/>
<stop offset="0.625" stop-color="#D8A4F0"/>
<stop offset="0.75" stop-color="#A981FE"/>
<stop offset="0.875" stop-color="#A981FE"/>
<stop offset="1" stop-color="#A981FE"/>
</linearGradient>
</defs>
</svg>
