<svg width="10" height="11" viewBox="0 0 10 11" fill="none" xmlns="http://www.w3.org/2000/svg">
<ellipse cx="5" cy="5.5" rx="5" ry="5.5" fill="white"/>
<path fill-rule="evenodd" clip-rule="evenodd" d="M3.44478 2.5625C2.89774 2.5625 2.375 3.06583 2.375 3.78926V7.24278C2.375 7.96622 2.89774 8.46955 3.44478 8.46955H6.58435C7.1314 8.46955 7.65413 7.96622 7.65413 7.24278V3.78926C7.65413 3.06583 7.1314 2.5625 6.58435 2.5625H3.44478ZM1.375 3.78926C1.375 2.60537 2.2579 1.5625 3.44478 1.5625H6.58435C7.77124 1.5625 8.65413 2.60537 8.65413 3.78926V7.24278C8.65413 8.42668 7.77124 9.46955 6.58435 9.46955H3.44478C2.2579 9.46955 1.375 8.42668 1.375 7.24278V3.78926ZM5.13191 4.62803C4.98603 4.60423 4.83481 4.63081 4.69765 4.70909C4.55948 4.78795 4.43896 4.91786 4.36111 5.08799C4.28313 5.25842 4.25481 5.45502 4.28305 5.64811C4.31129 5.84113 4.39336 6.013 4.51016 6.14148C4.62639 6.26934 4.76951 6.34663 4.91583 6.37253C5.06157 6.39833 5.21292 6.37375 5.35062 6.29751C5.48933 6.22071 5.61106 6.09274 5.69068 5.92394C5.77045 5.75483 5.80101 5.55874 5.77492 5.36519C5.74831 5.16777 5.66539 4.99163 5.54623 4.86055C5.42769 4.73015 5.28124 4.65239 5.13191 4.62803ZM4.20195 3.8406C4.53371 3.65124 4.91621 3.57963 5.2929 3.64107C5.67662 3.70366 6.02367 3.89912 6.28617 4.18788C6.54805 4.47595 6.71353 4.84265 6.76596 5.23159C6.81736 5.61287 6.75866 6.00386 6.59511 6.35057C6.43142 6.69759 6.16816 6.98791 5.83499 7.17237C5.5008 7.3574 5.11738 7.42375 4.74154 7.35723C4.36628 7.29081 4.02755 7.09722 3.77022 6.81416C3.51346 6.53172 3.34928 6.17357 3.29358 5.79285C3.2379 5.4122 3.29225 5.02056 3.45178 4.67191C3.61145 4.32296 3.87119 4.02938 4.20195 3.8406ZM6.74132 3.11659C6.46518 3.11659 6.24132 3.34045 6.24132 3.61659C6.24132 3.89273 6.46518 4.11659 6.74132 4.11659H6.74493C7.02107 4.11659 7.24493 3.89273 7.24493 3.61659C7.24493 3.34045 7.02107 3.11659 6.74493 3.11659H6.74132Z" fill="black"/>
</svg>
