<svg width="10" height="11" viewBox="0 0 10 11" fill="none" xmlns="http://www.w3.org/2000/svg">
<ellipse cx="5" cy="5.5" rx="5" ry="5.5" fill="white"/>
<path d="M2.91663 2.97915C2.91663 2.67525 3.02637 2.38381 3.22172 2.16892C3.41707 1.95403 3.68203 1.83331 3.95829 1.83331H4.99996V4.12498H3.95829C3.68203 4.12498 3.41707 4.00426 3.22172 3.78937C3.02637 3.57449 2.91663 3.28304 2.91663 2.97915Z" stroke="black" stroke-linecap="round" stroke-linejoin="round"/>
<path d="M5 1.83331H6.04167C6.17846 1.83331 6.31391 1.86295 6.4403 1.92053C6.56668 1.97812 6.68151 2.06252 6.77824 2.16892C6.87496 2.27532 6.95169 2.40164 7.00404 2.54065C7.05639 2.67967 7.08333 2.82867 7.08333 2.97915C7.08333 3.12962 7.05639 3.27862 7.00404 3.41764C6.95169 3.55666 6.87496 3.68297 6.77824 3.78937C6.68151 3.89577 6.56668 3.98017 6.4403 4.03776C6.31391 4.09534 6.17846 4.12498 6.04167 4.12498H5V1.83331Z" stroke="black" stroke-linecap="round" stroke-linejoin="round"/>
<path d="M5 5.27083C5 5.12036 5.02694 4.97136 5.07929 4.83234C5.13164 4.69332 5.20837 4.56701 5.3051 4.46061C5.40182 4.35421 5.51666 4.2698 5.64304 4.21222C5.76942 4.15464 5.90487 4.125 6.04167 4.125C6.17846 4.125 6.31391 4.15464 6.4403 4.21222C6.56668 4.2698 6.68151 4.35421 6.77824 4.46061C6.87496 4.56701 6.95169 4.69332 7.00404 4.83234C7.05639 4.97136 7.08333 5.12036 7.08333 5.27083C7.08333 5.42131 7.05639 5.57031 7.00404 5.70932C6.95169 5.84834 6.87496 5.97466 6.77824 6.08106C6.68151 6.18746 6.56668 6.27186 6.4403 6.32945C6.31391 6.38703 6.17846 6.41667 6.04167 6.41667C5.90487 6.41667 5.76942 6.38703 5.64304 6.32945C5.51666 6.27186 5.40182 6.18746 5.3051 6.08106C5.20837 5.97466 5.13164 5.84834 5.07929 5.70932C5.02694 5.57031 5 5.42131 5 5.27083V5.27083Z" stroke="black" stroke-linecap="round" stroke-linejoin="round"/>
<path d="M2.91663 7.56252C2.91663 7.25863 3.02637 6.96718 3.22172 6.75229C3.41707 6.53741 3.68203 6.41669 3.95829 6.41669H4.99996V7.56252C4.99996 7.86641 4.89021 8.15786 4.69486 8.37275C4.49951 8.58763 4.23456 8.70835 3.95829 8.70835C3.68203 8.70835 3.41707 8.58763 3.22172 8.37275C3.02637 8.15786 2.91663 7.86641 2.91663 7.56252Z" stroke="black" stroke-linecap="round" stroke-linejoin="round"/>
<path d="M2.91663 5.27083C2.91663 4.96694 3.02637 4.67549 3.22172 4.46061C3.41707 4.24572 3.68203 4.125 3.95829 4.125H4.99996V6.41667H3.95829C3.68203 6.41667 3.41707 6.29595 3.22172 6.08106C3.02637 5.86617 2.91663 5.57473 2.91663 5.27083Z" stroke="black" stroke-linecap="round" stroke-linejoin="round"/>
</svg>
