<svg width="10" height="11" viewBox="0 0 10 11" fill="none" xmlns="http://www.w3.org/2000/svg">
<ellipse cx="5" cy="5.5" rx="5" ry="5.5" fill="white"/>
<path d="M2.91663 2.97909C2.91663 2.67519 3.02637 2.38374 3.22172 2.16886C3.41707 1.95397 3.68203 1.83325 3.95829 1.83325H4.99996V4.12492H3.95829C3.68203 4.12492 3.41707 4.0042 3.22172 3.78931C3.02637 3.57443 2.91663 3.28298 2.91663 2.97909Z" stroke="black" stroke-linecap="round" stroke-linejoin="round"/>
<path d="M5 1.83325H6.04167C6.17846 1.83325 6.31391 1.86289 6.4403 1.92047C6.56668 1.97806 6.68151 2.06246 6.77824 2.16886C6.87496 2.27526 6.95169 2.40157 7.00404 2.54059C7.05639 2.67961 7.08333 2.82861 7.08333 2.97909C7.08333 3.12956 7.05639 3.27856 7.00404 3.41758C6.95169 3.5566 6.87496 3.68291 6.77824 3.78931C6.68151 3.89571 6.56668 3.98011 6.4403 4.0377C6.31391 4.09528 6.17846 4.12492 6.04167 4.12492H5V1.83325Z" stroke="black" stroke-linecap="round" stroke-linejoin="round"/>
<path d="M5 5.27083C5 5.12036 5.02694 4.97136 5.07929 4.83234C5.13164 4.69332 5.20837 4.56701 5.3051 4.46061C5.40182 4.35421 5.51666 4.2698 5.64304 4.21222C5.76942 4.15464 5.90487 4.125 6.04167 4.125C6.17846 4.125 6.31391 4.15464 6.4403 4.21222C6.56668 4.2698 6.68151 4.35421 6.77824 4.46061C6.87496 4.56701 6.95169 4.69332 7.00404 4.83234C7.05639 4.97136 7.08333 5.12036 7.08333 5.27083C7.08333 5.42131 7.05639 5.57031 7.00404 5.70932C6.95169 5.84834 6.87496 5.97466 6.77824 6.08106C6.68151 6.18746 6.56668 6.27186 6.4403 6.32945C6.31391 6.38703 6.17846 6.41667 6.04167 6.41667C5.90487 6.41667 5.76942 6.38703 5.64304 6.32945C5.51666 6.27186 5.40182 6.18746 5.3051 6.08106C5.20837 5.97466 5.13164 5.84834 5.07929 5.70932C5.02694 5.57031 5 5.42131 5 5.27083V5.27083Z" stroke="black" stroke-linecap="round" stroke-linejoin="round"/>
<path d="M2.91663 7.56258C2.91663 7.25869 3.02637 6.96724 3.22172 6.75235C3.41707 6.53747 3.68203 6.41675 3.95829 6.41675H4.99996V7.56258C4.99996 7.86648 4.89021 8.15792 4.69486 8.37281C4.49951 8.58769 4.23456 8.70841 3.95829 8.70841C3.68203 8.70841 3.41707 8.58769 3.22172 8.37281C3.02637 8.15792 2.91663 7.86648 2.91663 7.56258Z" stroke="black" stroke-linecap="round" stroke-linejoin="round"/>
<path d="M2.91663 5.27083C2.91663 4.96694 3.02637 4.67549 3.22172 4.46061C3.41707 4.24572 3.68203 4.125 3.95829 4.125H4.99996V6.41667H3.95829C3.68203 6.41667 3.41707 6.29595 3.22172 6.08106C3.02637 5.86617 2.91663 5.57473 2.91663 5.27083Z" stroke="black" stroke-linecap="round" stroke-linejoin="round"/>
</svg>
