<svg width="31" height="31" viewBox="0 0 31 31" fill="none" xmlns="http://www.w3.org/2000/svg">
<circle cx="15.6412" cy="15.8647" r="15" fill="white"/>
<path fill-rule="evenodd" clip-rule="evenodd" d="M10.9756 6.98975C8.65083 6.98975 6.76624 8.87434 6.76624 11.1991V20.6178C6.76624 22.9426 8.65083 24.8271 10.9756 24.8271H20.3943C22.719 24.8271 24.6036 22.9426 24.6036 20.6178V11.1991C24.6036 8.87434 22.719 6.98975 20.3943 6.98975H10.9756ZM5.76624 11.1991C5.76624 8.32205 8.09854 5.98975 10.9756 5.98975H20.3943C23.2713 5.98975 25.6036 8.32205 25.6036 11.1991V20.6178C25.6036 23.4948 23.2713 25.8271 20.3943 25.8271H10.9756C8.09854 25.8271 5.76624 23.4948 5.76624 20.6178V11.1991ZM16.2051 12.6354C15.5253 12.5346 14.831 12.6507 14.2209 12.9672C13.6109 13.2838 13.1162 13.7846 12.8072 14.3985C12.4982 15.0124 12.3907 15.7081 12.4998 16.3866C12.609 17.0652 12.9294 17.692 13.4154 18.178C13.9013 18.6639 14.5282 18.9843 15.2067 19.0935C15.8853 19.2027 16.581 19.0951 17.1948 18.7861C17.8087 18.4772 18.3096 17.9825 18.6261 17.3724C18.9427 16.7624 19.0588 16.0681 18.958 15.3882C18.8551 14.6948 18.532 14.0528 18.0363 13.5571C17.5406 13.0613 16.8986 12.7382 16.2051 12.6354ZM13.7603 12.0796C14.5571 11.6662 15.4639 11.5145 16.3518 11.6462C17.2575 11.7805 18.096 12.2025 18.7434 12.85C19.3908 13.4974 19.8128 14.3359 19.9471 15.2415C20.0788 16.1294 19.9271 17.0363 19.5137 17.833C19.1003 18.6297 18.4462 19.2758 17.6444 19.6794C16.8427 20.0829 15.9341 20.2234 15.0478 20.0808C14.1616 19.9382 13.343 19.5198 12.7083 18.8851C12.0736 18.2504 11.6551 17.4317 11.5125 16.5455C11.3699 15.6593 11.5104 14.7507 11.914 13.9489C12.3175 13.1471 12.9636 12.493 13.7603 12.0796ZM20.8652 10.2282C20.5891 10.2282 20.3652 10.452 20.3652 10.7282C20.3652 11.0043 20.5891 11.2282 20.8652 11.2282H20.876C21.1522 11.2282 21.376 11.0043 21.376 10.7282C21.376 10.452 21.1522 10.2282 20.876 10.2282H20.8652Z" fill="black"/>
</svg>
