<svg width="30" height="30" viewBox="0 0 30 30" fill="none" xmlns="http://www.w3.org/2000/svg">
<circle cx="15" cy="14.9995" r="15" fill="white"/>
<path d="M8.75 8.12451C8.75 7.29571 9.07924 6.50085 9.66529 5.9148C10.2513 5.32875 11.0462 4.99951 11.875 4.99951H15V11.2495H11.875C11.0462 11.2495 10.2513 10.9203 9.66529 10.3342C9.07924 9.74817 8.75 8.95331 8.75 8.12451Z" stroke="black" stroke-linecap="round" stroke-linejoin="round"/>
<path d="M15 4.99951H18.125C18.5354 4.99951 18.9417 5.08034 19.3209 5.23739C19.7 5.39443 20.0445 5.62462 20.3347 5.9148C20.6249 6.20499 20.8551 6.54948 21.0121 6.92863C21.1692 7.30777 21.25 7.71413 21.25 8.12451C21.25 8.53489 21.1692 8.94126 21.0121 9.3204C20.8551 9.69954 20.6249 10.044 20.3347 10.3342C20.0445 10.6244 19.7 10.8546 19.3209 11.0116C18.9417 11.1687 18.5354 11.2495 18.125 11.2495H15V4.99951Z" stroke="black" stroke-linecap="round" stroke-linejoin="round"/>
<path d="M15 14.3745C15 13.9641 15.0808 13.5578 15.2379 13.1786C15.3949 12.7995 15.6251 12.455 15.9153 12.1648C16.2055 11.8746 16.55 11.6444 16.9291 11.4874C17.3083 11.3303 17.7146 11.2495 18.125 11.2495C18.5354 11.2495 18.9417 11.3303 19.3209 11.4874C19.7 11.6444 20.0445 11.8746 20.3347 12.1648C20.6249 12.455 20.8551 12.7995 21.0121 13.1786C21.1692 13.5578 21.25 13.9641 21.25 14.3745C21.25 14.7849 21.1692 15.1913 21.0121 15.5704C20.8551 15.9495 20.6249 16.294 20.3347 16.5842C20.0445 16.8744 19.7 17.1046 19.3209 17.2616C18.9417 17.4187 18.5354 17.4995 18.125 17.4995C17.7146 17.4995 17.3083 17.4187 16.9291 17.2616C16.55 17.1046 16.2055 16.8744 15.9153 16.5842C15.6251 16.294 15.3949 15.9495 15.2379 15.5704C15.0808 15.1913 15 14.7849 15 14.3745V14.3745Z" stroke="black" stroke-linecap="round" stroke-linejoin="round"/>
<path d="M8.75 20.6245C8.75 19.7957 9.07924 19.0009 9.66529 18.4148C10.2513 17.8288 11.0462 17.4995 11.875 17.4995H15V20.6245C15 21.4533 14.6708 22.2482 14.0847 22.8342C13.4987 23.4203 12.7038 23.7495 11.875 23.7495C11.0462 23.7495 10.2513 23.4203 9.66529 22.8342C9.07924 22.2482 8.75 21.4533 8.75 20.6245Z" stroke="black" stroke-linecap="round" stroke-linejoin="round"/>
<path d="M8.75 14.3745C8.75 13.5457 9.07924 12.7509 9.66529 12.1648C10.2513 11.5788 11.0462 11.2495 11.875 11.2495H15V17.4995H11.875C11.0462 17.4995 10.2513 17.1703 9.66529 16.5842C9.07924 15.9982 8.75 15.2033 8.75 14.3745Z" stroke="black" stroke-linecap="round" stroke-linejoin="round"/>
</svg>
