<svg width="31" height="31" viewBox="0 0 31 31" fill="none" xmlns="http://www.w3.org/2000/svg">
<circle cx="15.6412" cy="15.8647" r="15" fill="white"/>
<path d="M9.39124 8.98975C9.39124 8.16094 9.72048 7.36609 10.3065 6.78004C10.8926 6.19399 11.6874 5.86475 12.5162 5.86475H15.6412V12.1147H12.5162C11.6874 12.1147 10.8926 11.7855 10.3065 11.1995C9.72048 10.6134 9.39124 9.81855 9.39124 8.98975Z" stroke="black" stroke-linecap="round" stroke-linejoin="round"/>
<path d="M15.6412 5.86475H18.7662C19.1766 5.86475 19.583 5.94558 19.9621 6.10262C20.3413 6.25967 20.6858 6.48985 20.9759 6.78004C21.2661 7.07022 21.4963 7.41472 21.6534 7.79386C21.8104 8.173 21.8912 8.57937 21.8912 8.98975C21.8912 9.40013 21.8104 9.80649 21.6534 10.1856C21.4963 10.5648 21.2661 10.9093 20.9759 11.1995C20.6858 11.4896 20.3413 11.7198 19.9621 11.8769C19.583 12.0339 19.1766 12.1147 18.7662 12.1147H15.6412V5.86475Z" stroke="black" stroke-linecap="round" stroke-linejoin="round"/>
<path d="M15.6412 15.2397C15.6412 14.8294 15.7221 14.423 15.8791 14.0439C16.0362 13.6647 16.2663 13.3202 16.5565 13.03C16.8467 12.7399 17.1912 12.5097 17.5703 12.3526C17.9495 12.1956 18.3559 12.1147 18.7662 12.1147C19.1766 12.1147 19.583 12.1956 19.9621 12.3526C20.3413 12.5097 20.6858 12.7399 20.9759 13.03C21.2661 13.3202 21.4963 13.6647 21.6534 14.0439C21.8104 14.423 21.8912 14.8294 21.8912 15.2397C21.8912 15.6501 21.8104 16.0565 21.6534 16.4356C21.4963 16.8148 21.2661 17.1593 20.9759 17.4495C20.6858 17.7396 20.3413 17.9698 19.9621 18.1269C19.583 18.2839 19.1766 18.3647 18.7662 18.3647C18.3559 18.3647 17.9495 18.2839 17.5703 18.1269C17.1912 17.9698 16.8467 17.7396 16.5565 17.4495C16.2663 17.1593 16.0362 16.8148 15.8791 16.4356C15.7221 16.0565 15.6412 15.6501 15.6412 15.2397V15.2397Z" stroke="black" stroke-linecap="round" stroke-linejoin="round"/>
<path d="M9.39124 21.4897C9.39124 20.6609 9.72048 19.8661 10.3065 19.28C10.8926 18.694 11.6874 18.3647 12.5162 18.3647H15.6412V21.4897C15.6412 22.3185 15.312 23.1134 14.7259 23.6995C14.1399 24.2855 13.345 24.6147 12.5162 24.6147C11.6874 24.6147 10.8926 24.2855 10.3065 23.6995C9.72048 23.1134 9.39124 22.3185 9.39124 21.4897Z" stroke="black" stroke-linecap="round" stroke-linejoin="round"/>
<path d="M9.39124 15.2397C9.39124 14.4109 9.72048 13.6161 10.3065 13.03C10.8926 12.444 11.6874 12.1147 12.5162 12.1147H15.6412V18.3647H12.5162C11.6874 18.3647 10.8926 18.0355 10.3065 17.4495C9.72048 16.8634 9.39124 16.0685 9.39124 15.2397Z" stroke="black" stroke-linecap="round" stroke-linejoin="round"/>
</svg>
