<svg width="30" height="30" viewBox="0 0 30 30" fill="none" xmlns="http://www.w3.org/2000/svg">
<circle cx="15" cy="14.9995" r="15" fill="white"/>
<path fill-rule="evenodd" clip-rule="evenodd" d="M10.3343 6.12451C8.00959 6.12451 6.125 8.0091 6.125 10.3339V19.7526C6.125 22.0773 8.00959 23.9619 10.3343 23.9619H19.753C22.0778 23.9619 23.9624 22.0773 23.9624 19.7526V10.3339C23.9624 8.0091 22.0778 6.12451 19.753 6.12451H10.3343ZM5.125 10.3339C5.125 7.45682 7.4573 5.12451 10.3343 5.12451H19.753C22.6301 5.12451 24.9624 7.45682 24.9624 10.3339V19.7526C24.9624 22.6296 22.6301 24.9619 19.753 24.9619H10.3343C7.4573 24.9619 5.125 22.6296 5.125 19.7526V10.3339ZM15.5639 11.7701C14.884 11.6693 14.1897 11.7855 13.5797 12.102C12.9696 12.4185 12.475 12.9194 12.166 13.5333C11.857 14.1472 11.7494 14.8428 11.8586 15.5214C11.9678 16.1999 12.2882 16.8268 12.7741 17.3127C13.2601 17.7987 13.8869 18.1191 14.5655 18.2283C15.244 18.3375 15.9397 18.2299 16.5536 17.9209C17.1675 17.6119 17.6683 17.1172 17.9849 16.5072C18.3014 15.8971 18.4175 15.2028 18.3167 14.523C18.2139 13.8295 17.8908 13.1875 17.395 12.6918C16.8993 12.1961 16.2573 11.873 15.5639 11.7701ZM13.1191 11.2144C13.9159 10.801 14.8227 10.6493 15.7106 10.781C16.6162 10.9153 17.4547 11.3373 18.1022 11.9847C18.7496 12.6321 19.1716 13.4706 19.3059 14.3763C19.4376 15.2642 19.2859 16.171 18.8725 16.9678C18.4591 17.7645 17.805 18.4106 17.0032 18.8141C16.2014 19.2177 15.2928 19.3582 14.4066 19.2156C13.5204 19.073 12.7017 18.6546 12.067 18.0198C11.4323 17.3851 11.0139 16.5665 10.8713 15.6803C10.7287 14.794 10.8692 13.8854 11.2727 13.0837C11.6763 12.2819 12.3224 11.6278 13.1191 11.2144ZM20.224 9.36294C19.9478 9.36294 19.724 9.58679 19.724 9.86294C19.724 10.1391 19.9478 10.3629 20.224 10.3629H20.2348C20.5109 10.3629 20.7348 10.1391 20.7348 9.86294C20.7348 9.58679 20.5109 9.36294 20.2348 9.36294H20.224Z" fill="black"/>
</svg>
