<svg width="146" height="112" viewBox="0 0 146 112" fill="none" xmlns="http://www.w3.org/2000/svg">
<path d="M3.49016 111.496C2.68663 111.656 1.97196 111.109 1.8939 110.275L0.621973 96.6872C0.54393 95.8534 1.13203 95.048 1.93557 94.8884C2.7391 94.7287 3.45377 95.2753 3.53182 96.1091L4.66243 108.187L16.3018 105.875C17.1053 105.715 17.82 106.262 17.898 107.096C17.9761 107.93 17.388 108.735 16.5845 108.895L3.49016 111.496ZM2.22011 109.123C4.86573 105.5 9.23527 102.461 14.61 99.8067C20.0167 97.1369 26.6149 94.774 33.899 92.593C48.452 88.2356 66.0073 84.5307 82.6476 80.5846C99.3626 76.6209 115.133 72.4185 126.366 67.0635C131.987 64.3837 136.322 61.4833 139.071 58.3062C141.759 55.2 142.931 51.8442 142.323 47.9944L145.209 47.2228C145.985 52.1436 144.408 56.4926 141.15 60.2575C137.953 63.9515 133.145 67.0885 127.363 69.8448C115.79 75.3619 99.7142 79.6261 83.0355 83.5813C66.282 87.5542 48.8962 91.2206 34.454 95.5449C27.2404 97.7048 20.8274 100.01 15.646 102.569C10.4326 105.143 6.63717 107.892 4.47755 110.849L2.22011 109.123ZM142.323 47.9944C141.04 39.8646 135.911 35.1601 129.054 32.8503C122.147 30.5241 113.582 30.6789 105.841 32.3004C98.0421 33.934 91.4246 36.9809 88.2692 40.1162C86.707 41.6684 86.2717 42.9425 86.4513 43.9458C86.648 45.0443 87.6791 46.4919 90.5751 47.9402L89.1269 50.74C85.9914 49.1718 84.0107 47.2066 83.5762 44.7792C83.1246 42.2566 84.4388 39.8918 86.3676 37.9753C90.1943 34.173 97.5252 30.9633 105.529 29.2869C113.59 27.5984 122.681 27.3901 130.172 29.9136C137.713 32.4534 143.723 37.8113 145.209 47.2228L142.323 47.9944ZM90.5751 47.9402C96.2656 50.7862 101.621 50.4227 105.752 48.2109C109.895 45.9923 112.961 41.8372 113.982 36.7712C116.004 26.7367 109.972 12.3671 86.2064 3.46931L87.4064 0.561431C111.734 9.66955 119.287 24.9954 116.84 37.1382C115.626 43.161 111.943 48.215 106.881 50.9252C101.806 53.6422 95.4994 53.927 89.1269 50.74L90.5751 47.9402Z" fill="url(#paint0_linear_1_259)"/>
<defs>
<linearGradient id="paint0_linear_1_259" x1="12.7656" y1="66.0374" x2="142.335" y2="40.3033" gradientUnits="userSpaceOnUse">
<stop stop-color="#A9FE81"/>
<stop offset="1" stop-color="#C0F0FF"/>
</linearGradient>
</defs>
</svg>
