<svg width="496" height="455" viewBox="0 0 496 455" fill="none" xmlns="http://www.w3.org/2000/svg">
<path d="M4.63221 454.093C3.84324 454.349 3.06455 453.901 2.89298 453.092L0.0969777 439.905C-0.0745985 439.096 0.425907 438.232 1.21482 437.975C2.00379 437.719 2.78248 438.167 2.95405 438.976L5.43936 450.698L16.8675 446.98C17.6564 446.724 18.4351 447.172 18.6067 447.981C18.7782 448.79 18.2778 449.654 17.4888 449.911L4.63221 454.093ZM3.09173 451.92C11.2993 437.75 25.6307 425.99 44.135 415.914C62.6569 405.828 85.5141 397.346 110.972 389.813C161.866 374.751 223.487 363.388 282.128 350.646C340.864 337.883 396.584 323.744 435.999 303.149C455.699 292.855 471.178 281.023 480.94 267.081C490.657 253.205 494.793 237.125 491.643 218.081L494.525 217.285C497.808 237.127 493.49 254.109 483.238 268.75C473.031 283.326 457.026 295.465 437.098 305.878C397.259 326.694 341.15 340.902 282.46 353.655C223.675 366.428 162.27 377.747 111.516 392.767C86.149 400.274 63.5258 408.683 45.2829 418.617C27.0225 428.56 13.305 439.949 5.55131 453.335L3.09173 451.92ZM491.643 218.081C485.29 179.675 464.903 156.399 439.237 143.935C413.521 131.446 382.452 129.795 354.848 134.833C327.174 139.883 303.337 151.583 291.879 165.405C286.197 172.26 283.652 179.506 284.969 186.738C286.299 194.04 291.627 201.681 302.466 209.037L300.725 211.666C289.59 204.109 283.617 195.934 282.095 187.582C280.561 179.162 283.613 170.917 289.753 163.511C301.938 148.812 326.642 136.909 354.611 131.805C382.649 126.688 414.326 128.333 440.66 141.122C467.044 153.935 488.013 177.918 494.525 217.285L491.643 218.081ZM302.466 209.037C324.131 223.74 344.241 223.769 359.575 214.594C374.962 205.386 385.962 186.662 388.937 162.999C394.879 115.733 368.626 49.1462 281.872 3.14026L283.376 0.368401C370.796 46.7279 397.977 114.266 391.835 163.12C388.768 187.517 377.347 207.352 360.837 217.232C344.273 227.144 323.009 226.789 300.725 211.666L302.466 209.037Z" fill="url(#paint0_linear_1_441)"/>
<defs>
<linearGradient id="paint0_linear_1_441" x1="30.2586" y1="262.302" x2="484.237" y2="172.575" gradientUnits="userSpaceOnUse">
<stop stop-color="#A9FE81"/>
<stop offset="1" stop-color="#C0F0FF"/>
</linearGradient>
</defs>
</svg>
