<svg width="130" height="39" viewBox="0 0 130 39" fill="none" xmlns="http://www.w3.org/2000/svg">
<path d="M2.01356 19.7435C3.47653 12.9759 7.52132 10.1411 12.282 9.90063C16.729 9.67603 21.9291 11.6706 26.0865 13.8056C46.7735 24.4294 24.9007 46.9735 26.1864 24.584C26.4903 19.2919 28.5011 15.4505 30.799 11.6082C34.2644 5.81354 37.8587 4.9467 42.9605 4.4123C51.8973 3.47619 58.4596 7.53714 63.1719 20.4664C67.904 33.4497 56.9835 32.8468 57.0776 24.0643C57.1519 17.1338 62.8185 5.66801 67.6522 3.52374C71.9767 1.60535 79.6194 1.37221 83.9092 4.38688C87.9323 7.21412 90.8238 14.2391 92.9803 19.785C94.3181 23.2254 94.8911 28.7242 93.2008 32.1862C89.4058 39.9593 81.804 39.1943 82.1711 28.7457C82.3089 24.8239 84.2676 20.5336 85.97 17.652C87.8323 14.4997 89.5735 11.8573 92.42 9.20637C104.387 -1.93858 123.579 10.8616 127.987 19.1907" stroke="url(#paint0_linear_1_242)" stroke-width="3" stroke-linecap="round"/>
<defs>
<linearGradient id="paint0_linear_1_242" x1="113.029" y1="19.7867" x2="2.0136" y2="19.7005" gradientUnits="userSpaceOnUse">
<stop stop-color="#DBA6F4"/>
<stop offset="1" stop-color="#A981FE"/>
</linearGradient>
</defs>
</svg>
