<svg width="727" height="141" viewBox="0 0 727 141" fill="none" xmlns="http://www.w3.org/2000/svg">
<path d="M1.64124 70.7112C10.012 44.4444 33.226 33.4242 60.5629 32.4665C86.0978 31.572 115.968 39.2842 139.851 47.5467C258.69 88.6605 133.189 176.247 140.472 89.3671C142.194 68.8317 153.724 53.9165 166.902 38.9961C186.776 16.4942 207.412 13.1122 236.706 11.0122C288.02 7.3337 325.721 23.0565 352.839 73.1986C380.07 123.551 317.358 121.268 317.859 87.1906C318.255 60.2992 350.744 15.7815 378.491 7.43648C403.315 -0.0294504 447.201 -0.973668 471.848 10.7013C494.963 21.6504 511.599 48.8928 524.007 70.4002C531.704 83.7424 535.019 105.075 525.329 118.517C503.571 148.697 459.915 145.768 461.976 105.225C462.75 90.0071 473.979 73.35 483.741 62.1605C494.421 49.9197 504.408 39.6578 520.742 29.3572C589.414 -13.9483 699.675 35.6183 725.025 67.9128" stroke="url(#paint0_linear_1_527)" stroke-width="3" stroke-linecap="round"/>
<defs>
<linearGradient id="paint0_linear_1_527" x1="639.135" y1="70.3031" x2="1.64124" y2="70.3031" gradientUnits="userSpaceOnUse">
<stop stop-color="#DBA6F4"/>
<stop offset="1" stop-color="#A981FE"/>
</linearGradient>
</defs>
</svg>
