<svg width="46" height="121" viewBox="0 0 46 121" fill="none" xmlns="http://www.w3.org/2000/svg">
<path d="M15.9995 118.932C15.7898 119.803 15.0111 120.439 14.2601 120.353L2.02258 118.959C1.27162 118.874 0.832828 118.099 1.0425 117.229C1.25218 116.358 2.03093 115.722 2.78188 115.808L13.6597 117.047L16.6969 104.441C16.9066 103.571 17.6854 102.934 18.4363 103.02C19.1873 103.106 19.6261 103.88 19.4164 104.751L15.9995 118.932ZM13.4099 119.782C5.73978 106.238 2.29601 96.4141 1.58317 89.1317C1.22467 85.4693 1.54982 82.3827 2.42881 79.7625C3.31379 77.1244 4.72736 75.0581 6.40204 73.4244C9.66553 70.2407 13.9484 68.7013 17.1109 67.5163C18.777 66.892 20.0768 66.3898 20.9931 65.8349C21.9276 65.269 21.9492 64.968 21.957 64.8946L24.7601 64.7233C24.5549 66.6408 23.189 67.8329 21.9779 68.5663C20.7487 69.3107 19.1448 69.9141 17.5655 70.5059C14.2374 71.753 10.6626 73.0876 8.03217 75.6537C6.75987 76.8949 5.7174 78.4224 5.05358 80.4013C4.38377 82.398 4.06737 84.9515 4.39088 88.2566C5.04207 94.9091 8.25661 104.329 15.8697 117.773L13.4099 119.782ZM21.957 64.8946C22.0032 64.4637 21.8638 63.8441 21.2675 63.0209C20.6833 62.2144 19.7769 61.3749 18.619 60.5081C16.2955 58.7685 13.2511 57.1243 10.4376 55.4857C9.05234 54.6789 7.72479 53.8733 6.62248 53.0766C5.54499 52.2978 4.56929 51.4495 3.9899 50.5204C3.69488 50.0473 3.44693 49.4669 3.40278 48.7798C3.3556 48.0456 3.54935 47.2936 3.9818 46.6022C4.75343 45.3684 6.15844 44.5264 7.78442 43.8569L8.32938 46.811C6.77024 47.453 6.29124 47.9544 6.2011 48.0985C6.19286 48.1117 6.20275 48.0987 6.21148 48.0656C6.22019 48.0326 6.21921 48.0119 6.21934 48.0139C6.22058 48.0333 6.23874 48.1684 6.39568 48.42C6.72022 48.9404 7.39187 49.5788 8.42631 50.3265C9.43594 51.0562 10.6849 51.8169 12.0619 52.6188C14.773 54.1977 17.9961 55.9408 20.4524 57.7797C21.6845 58.7021 22.7961 59.6997 23.5791 60.7806C24.3501 61.8449 24.9272 63.1631 24.7601 64.7233L21.957 64.8946ZM7.78442 43.8569C11.0067 42.53 15.8546 40.659 20.9859 38.2115C26.1259 35.76 31.425 32.7866 35.5186 29.3211C39.638 25.8337 42.2478 22.1019 42.6169 18.1158C42.9889 14.0971 41.1482 9.18208 34.9473 3.44431L36.9574 0.863232C43.3617 6.78919 45.9293 12.4478 45.4251 17.8926C44.918 23.3701 41.3671 27.9916 36.9539 31.7276C32.5149 35.4855 26.9094 38.6054 21.6854 41.097C16.4528 43.5927 11.4773 45.5148 8.32938 46.811L7.78442 43.8569Z" fill="url(#paint0_linear_1_250)"/>
<defs>
<linearGradient id="paint0_linear_1_250" x1="5.58421" y1="68.7262" x2="52.5018" y2="59.7697" gradientUnits="userSpaceOnUse">
<stop stop-color="#AB83FE"/>
<stop offset="1" stop-color="#FBAE96"/>
</linearGradient>
</defs>
</svg>
