<svg width="13" height="11" viewBox="0 0 13 11" fill="none" xmlns="http://www.w3.org/2000/svg">
<path d="M12.9709 0.471486C13.0005 0.409018 13.0077 0.340584 12.9917 0.27467C12.9757 0.208756 12.9372 0.14826 12.881 0.100681C12.8248 0.053102 12.7533 0.0205332 12.6754 0.00701197C12.5975 -0.00650923 12.5166 -0.000388153 12.4428 0.0246164L0.623775 4.02513H0.622963L0.255725 4.14888C0.18617 4.17235 0.125637 4.21164 0.0808128 4.2624C0.0359889 4.31316 0.0086185 4.37342 0.00172506 4.43652C-0.00516839 4.49961 0.00868338 4.56309 0.0417503 4.61995C0.0748172 4.6768 0.125812 4.72481 0.189103 4.75868L0.522216 4.93743L0.523029 4.9388L4.58133 7.12365L7.16336 10.5577L7.16499 10.559L7.37623 10.8409C7.41638 10.8943 7.47316 10.9372 7.54029 10.965C7.60743 10.9928 7.68234 11.0044 7.75676 10.9985C7.83118 10.9926 7.90224 10.9694 7.9621 10.9316C8.02197 10.8937 8.06833 10.8426 8.09608 10.7839L12.9709 0.471486ZM11.4816 1.77084L5.39298 6.9229L5.2183 6.69053C5.1863 6.64789 5.14358 6.61174 5.09318 6.58466L4.81857 6.43685L10.9072 1.28479L11.8643 0.96098L11.4825 1.77084H11.4816Z" fill="#EEEEEE"/>
</svg>
