<svg width="313" height="303" viewBox="0 0 313 303" fill="none" xmlns="http://www.w3.org/2000/svg">
<path d="M55.7184 297.951C55.8273 298.776 55.2584 299.567 54.4477 299.717L41.237 302.171C40.4264 302.321 39.681 301.774 39.5721 300.949C39.4633 300.124 40.0322 299.333 40.8429 299.183L52.5857 297.002L51.0089 285.049C50.9001 284.224 51.4691 283.433 52.2797 283.283C53.0904 283.132 53.8358 283.679 53.9446 284.504L55.7184 297.951ZM94.9418 73.8425L93.4856 73.6359L94.9418 73.8425ZM53.352 299.473C21.056 275.779 5.65436 257.568 1.50348 241.441C-2.70551 225.088 4.72979 211.315 16.5416 197.006C40.278 168.253 82.2256 136.353 93.4856 73.6359L96.3979 74.049C84.9412 137.862 41.9775 170.785 18.7646 198.904C7.10176 213.032 0.552934 225.709 4.36991 240.538C8.24501 255.594 22.8794 273.299 55.1492 296.974L53.352 299.473ZM93.4856 73.6359C98.9551 43.1711 110.453 28.4072 126.298 22.5763C134.121 19.6976 142.859 19.0568 152.181 19.6127C161.503 20.1685 171.51 21.9292 181.89 23.9251C223.623 31.9499 271.478 43.6672 310.708 0.213833L312.838 2.22023C272.247 47.18 222.522 34.8549 181.213 26.9115C170.832 24.9155 160.988 23.1887 151.871 22.6451C142.754 22.1014 134.466 22.7492 127.181 25.43C112.81 30.7185 101.764 44.1587 96.3979 74.049L93.4856 73.6359Z" fill="url(#paint0_linear_1_495)"/>
<defs>
<linearGradient id="paint0_linear_1_495" x1="213.586" y1="20.559" x2="36.9789" y2="307.043" gradientUnits="userSpaceOnUse">
<stop stop-color="#81B3FE"/>
<stop offset="1" stop-color="#E0A6F4"/>
</linearGradient>
</defs>
</svg>
