<svg width="108" height="143" viewBox="0 0 108 143" fill="none" xmlns="http://www.w3.org/2000/svg">
<path d="M20.7533 138.923C20.7158 139.785 20.05 140.576 19.2661 140.688L6.49163 142.524C5.70772 142.636 5.10262 142.028 5.14008 141.166C5.17755 140.303 5.8434 139.513 6.62731 139.4L17.9824 137.769L18.5251 125.275C18.5626 124.412 19.2284 123.621 20.0123 123.509C20.7962 123.396 21.4013 124.004 21.3639 124.867L20.7533 138.923ZM32.9888 35.3137L31.5827 35.3654L32.9888 35.3137ZM18.2823 140.375C7.35084 129.392 2.04913 120.869 0.610981 113.236C-0.858882 105.434 1.74544 98.8189 5.81502 92.0477C13.922 78.5591 27.8393 64.1136 31.5827 35.3654L34.395 35.262C30.5156 65.0549 15.8091 80.6172 8.09611 93.4505C4.25571 99.8403 2.15102 105.464 3.39874 112.087C4.67817 118.878 9.52062 126.962 20.3855 137.878L18.2823 140.375ZM31.5827 35.3654C33.4129 21.3093 37.3357 13.8551 43.3116 10.8341C46.2031 9.37242 49.3571 9.08159 52.5786 9.34276C55.8039 9.60424 59.2419 10.4341 62.7417 11.3544C69.8377 13.2203 77.2164 15.4468 84.4941 14.7627C91.6083 14.0939 98.6126 10.6356 105.016 0.894338L107.21 2.4351C100.164 13.1541 92.2121 17.1511 84.23 17.9015C76.4114 18.6365 68.5537 16.2462 61.6401 14.4282C58.135 13.5065 54.8748 12.7277 51.8795 12.4849C48.8803 12.2418 46.2911 12.551 44.0878 13.6648C39.8741 15.795 36.2007 21.3939 34.395 35.262L31.5827 35.3654Z" fill="url(#paint0_linear_1_290)"/>
<defs>
<linearGradient id="paint0_linear_1_290" x1="72.9962" y1="10.6358" x2="-17.1049" y2="117.366" gradientUnits="userSpaceOnUse">
<stop stop-color="#81B3FE"/>
<stop offset="1" stop-color="#E0A6F4"/>
</linearGradient>
</defs>
</svg>
