<svg width="375" height="532" viewBox="0 0 375 532" fill="none" xmlns="http://www.w3.org/2000/svg">
<path d="M163.196 408.169L162.251 407.033L163.196 408.169ZM294.489 238.896L294.433 240.468L294.489 238.896ZM12.7114 531.761C13.3715 532.205 14.2534 531.961 14.6811 531.214L21.6501 519.057C22.0777 518.311 21.8892 517.346 21.229 516.902C20.5688 516.458 19.6869 516.702 19.2593 517.448L13.0647 528.255L3.50163 521.822C2.84144 521.378 1.95953 521.623 1.53192 522.369C1.10425 523.115 1.29276 524.08 1.95294 524.524L12.7114 531.761ZM294.433 240.468C322.109 240.516 340.776 237.2 352.58 231.156C358.506 228.121 362.77 224.364 365.549 219.932C368.336 215.488 369.557 210.482 369.566 205.094C369.585 194.42 364.847 182.112 358.004 169.103C351.137 156.05 342 142.027 332.979 127.918C323.936 113.775 315.001 99.5341 308.437 85.9345C301.859 72.3038 297.77 59.5271 298.211 48.2942C298.645 37.2293 303.482 27.4683 315.255 19.6968C327.131 11.8568 346.043 6.07028 374.472 3.27378L374.327 0.142073C345.746 2.95344 326.31 8.79683 313.862 17.0143C301.31 25.3002 295.846 36.0241 295.365 48.2769C294.891 60.3617 299.272 73.7355 305.912 87.4935C312.567 101.283 321.598 115.669 330.631 129.796C339.686 143.957 348.736 157.848 355.527 170.758C362.342 183.713 366.735 195.416 366.718 205.207C366.709 210.052 365.621 214.393 363.227 218.21C360.826 222.039 357.038 225.457 351.462 228.312C340.261 234.048 322.119 237.371 294.545 237.324L294.433 240.468ZM162.251 407.033C155.918 413.485 148.1 415.983 139.205 415.84C130.274 415.698 120.345 412.891 109.955 408.82C99.5705 404.751 88.8443 399.469 78.293 394.435C67.7734 389.417 57.4236 384.643 47.9039 381.671C38.411 378.708 29.5373 377.466 22.0321 379.736C14.3971 382.045 8.38938 387.92 4.61516 398.596C0.875633 409.173 -0.696941 424.507 0.366033 445.971C1.43045 467.463 5.14637 495.243 12.0929 530.797L14.8785 530.024C7.94823 494.553 4.26358 466.948 3.21033 445.681C2.15565 424.384 3.74837 409.585 7.26378 399.642C10.7444 389.796 16.0813 384.764 22.6872 382.766C29.4228 380.729 37.6862 381.781 47.0335 384.699C56.3539 387.609 66.5473 392.304 77.0805 397.329C87.5821 402.339 98.4184 407.676 108.913 411.788C119.401 415.897 129.668 418.834 139.056 418.984C148.479 419.135 157.102 416.475 164.14 409.306L162.251 407.033ZM164.14 409.306C178.928 394.241 185.775 375.919 189.956 357.103C192.044 347.706 193.475 338.147 194.889 328.808C196.306 319.445 197.704 310.308 199.729 301.644C203.773 284.342 210.268 269.138 224.17 258.211C238.118 247.249 259.754 240.408 294.433 240.468L294.545 237.324C259.595 237.263 237.248 244.143 222.577 255.673C207.861 267.239 201.102 283.301 196.972 300.968C194.911 309.789 193.493 319.064 192.08 328.404C190.662 337.769 189.248 347.206 187.191 356.464C183.081 374.959 176.437 392.583 162.251 407.033L164.14 409.306Z" fill="url(#paint0_linear_1_451)"/>
<defs>
<linearGradient id="paint0_linear_1_451" x1="232.384" y1="328.777" x2="112.83" y2="173.28" gradientUnits="userSpaceOnUse">
<stop stop-color="#FEBD81"/>
<stop offset="0.489583" stop-color="#FFE598"/>
<stop offset="1" stop-color="#BFF4A6"/>
</linearGradient>
</defs>
</svg>
