<svg width="727" height="141" viewBox="0 0 727 141" fill="none" xmlns="http://www.w3.org/2000/svg">
<path d="M1.75899 69.7113C10.1751 43.459 33.4082 32.479 60.7467 31.5686C86.2831 30.7182 116.139 38.4821 140.008 46.7859C258.777 88.1052 133.124 175.475 140.558 88.6073C142.315 68.0749 153.87 53.1797 167.074 38.2821C186.987 15.8146 207.629 12.4683 236.927 10.4189C288.247 6.82919 325.921 22.6172 352.952 72.8061C380.096 123.205 317.388 120.814 317.948 86.7375C318.39 59.8469 350.956 15.3855 378.718 7.08843C403.555 -0.334562 447.442 -1.20288 472.069 10.5147C495.165 21.5037 511.754 48.7749 524.125 70.3037C531.799 83.6592 535.077 104.998 525.363 118.423C503.553 148.565 459.902 145.561 462.034 105.021C462.834 89.8046 474.091 73.167 483.873 61.9944C494.574 49.7721 504.579 39.5274 520.931 29.2551C589.677 -13.9315 699.852 35.8256 725.146 68.1639" stroke="url(#paint0_linear_1_427)" stroke-width="3" stroke-linecap="round"/>
<defs>
<linearGradient id="paint0_linear_1_427" x1="639.252" y1="70.4057" x2="1.7597" y2="69.3032" gradientUnits="userSpaceOnUse">
<stop stop-color="#DBA6F4"/>
<stop offset="1" stop-color="#A981FE"/>
</linearGradient>
</defs>
</svg>
