<svg width="89" height="119" viewBox="0 0 89 119" fill="none" xmlns="http://www.w3.org/2000/svg">
<path d="M44.573 90.7429L45.5325 91.8645L44.573 90.7429ZM71.663 54.0851L71.5461 55.6556L71.663 54.0851ZM12.3366 118.017C13.0097 118.438 13.8853 118.164 14.2923 117.405L20.925 105.034C21.332 104.275 21.1164 103.318 20.4433 102.896C19.7702 102.475 18.8946 102.749 18.4876 103.508L12.5919 114.504L2.84226 108.401C2.16919 107.979 1.29361 108.253 0.886587 109.012C0.479574 109.772 0.695248 110.729 1.36832 111.15L12.3366 118.017ZM71.5461 55.6556C77.5979 55.9571 81.8549 55.4235 84.6314 54.0603C86.0512 53.3632 87.1552 52.4144 87.8783 51.1798C88.6047 49.9395 88.8615 48.556 88.8101 47.1515C88.7107 44.4402 87.4508 41.4133 85.8439 38.4062C84.2124 35.3532 82.0753 32.0623 80.0038 28.8165C77.9121 25.5388 75.8796 22.2957 74.3672 19.2362C72.8382 16.1429 71.9468 13.4401 71.9461 11.2273C71.9457 10.1549 72.1549 9.2291 72.5827 8.41868C73.0114 7.60668 73.7097 6.81543 74.8173 6.09433C77.0803 4.62097 80.9122 3.53128 87.0127 3.20304L86.9796 0.0625418C80.7326 0.398675 76.3265 1.52123 73.4388 3.40127C71.971 4.35687 70.8659 5.52761 70.1351 6.91205C69.4034 8.29808 69.0972 9.80322 69.0977 11.3453C69.0987 14.3616 70.2743 17.6222 71.8551 20.8202C73.4526 24.0519 75.573 27.4278 77.655 30.6903C79.7573 33.9845 81.8147 37.1548 83.3765 40.0773C84.9628 43.0458 85.8949 45.5087 85.964 47.395C85.9968 48.2893 85.8319 48.9815 85.5031 49.5429C85.1709 50.1101 84.586 50.6892 83.5555 51.1951C81.4313 52.2381 77.7421 52.8116 71.7799 52.5145L71.5461 55.6556ZM43.6134 89.6213C42.6031 90.6788 41.2836 91.1101 39.5556 90.9986C37.7923 90.8849 35.7389 90.2089 33.477 89.2001C31.2239 88.1952 28.886 86.9184 26.5304 85.6677C24.2054 84.4332 21.8568 83.2208 19.6882 82.427C17.5557 81.6464 15.3674 81.1793 13.4323 81.6972C11.3296 82.26 9.7921 83.9038 8.95622 86.6096C8.15589 89.2003 7.96361 92.8365 8.3841 97.7229C8.80755 102.644 9.86781 108.986 11.6907 117.074L14.4565 116.209C12.6507 108.197 11.625 102.019 11.2198 97.3107C10.8118 92.5687 11.0483 89.468 11.6488 87.5243C12.2137 85.6957 13.0489 85.0075 14.0056 84.7515C15.1298 84.4506 16.6874 84.6777 18.702 85.4152C20.6805 86.1394 22.8801 87.2689 25.2192 88.5108C27.5277 89.7365 29.9696 91.0705 32.3266 92.1217C34.6748 93.169 37.062 93.9942 39.2843 94.1375C41.5418 94.2832 43.7527 93.7274 45.5325 91.8645L43.6134 89.6213ZM45.5325 91.8645C48.8774 88.3633 50.2776 84.0118 51.0455 79.7121C51.4283 77.5685 51.6618 75.388 51.8876 73.3147C52.1161 71.2171 52.3364 69.2327 52.6903 67.3695C53.3958 63.655 54.5844 60.6912 57.1547 58.6643C59.7741 56.5987 64.1054 55.2849 71.5461 55.6556L71.7799 52.5145C64.0801 52.1309 58.9662 53.4401 55.5567 56.1288C52.098 58.8563 50.6738 62.7782 49.9033 66.8347C49.5192 68.8569 49.2858 70.9794 49.0598 73.0542C48.8311 75.1533 48.6095 77.2107 48.2516 79.215C47.5379 83.2109 46.3142 86.7943 43.6134 89.6213L45.5325 91.8645Z" fill="url(#paint0_linear_1_275)"/>
<defs>
<linearGradient id="paint0_linear_1_275" x1="58.9331" y1="73.6291" x2="31.2729" y2="37.6977" gradientUnits="userSpaceOnUse">
<stop stop-color="#FEBD81"/>
<stop offset="0.489583" stop-color="#FFE598"/>
<stop offset="1" stop-color="#BFF4A6"/>
</linearGradient>
</defs>
</svg>
