<svg width="213" height="49" viewBox="0 0 213 49" fill="none" xmlns="http://www.w3.org/2000/svg">
<path d="M2.01574 24.7796C4.42821 16.1424 11.1327 12.5148 19.0306 12.1944C26.408 11.8952 35.0397 14.4247 41.9419 17.1363C76.2865 30.6291 40.0467 59.4494 42.1311 30.8851C42.6238 24.1335 45.9516 19.2277 49.7555 14.3197C55.4923 6.91801 61.4538 5.80197 69.917 5.1057C84.7418 3.88604 95.6381 9.04752 103.484 25.5269C111.364 42.0752 93.2442 41.3373 93.3812 30.1339C93.4893 21.293 102.866 6.65075 110.881 3.90165C118.051 1.44215 130.731 1.12291 137.854 4.95623C144.535 8.55123 149.348 17.5042 152.938 24.5725C155.165 28.9573 156.127 35.9701 153.33 40.3911C147.051 50.3176 134.437 49.3634 135.024 36.0339C135.244 31.0308 138.484 25.5523 141.302 21.8717C144.385 17.8452 147.268 14.4695 151.985 11.0798C171.816 -3.17121 203.684 13.1022 211.015 23.7143" stroke="url(#paint0_linear_1_298)" stroke-width="3" stroke-linecap="round"/>
<defs>
<linearGradient id="paint0_linear_1_298" x1="186.2" y1="24.5174" x2="2.01565" y2="24.6455" gradientUnits="userSpaceOnUse">
<stop stop-color="#DBA6F4"/>
<stop offset="1" stop-color="#A981FE"/>
</linearGradient>
</defs>
</svg>
